{"glyphs":{"0":{"ha":850,"x_min":0,"x_max":0,"o":"m 814 438 b 425 892 814 728 663 892 b 36 438 188 892 36 728 b 425 -17 36 147 188 -17 b 814 438 663 -17 814 147 z m 592 438 b 425 153 592 244 543 153 b 258 438 307 153 258 244 b 425 722 258 631 307 722 b 592 438 543 722 592 631 z "},"1":{"ha":474,"x_min":0,"x_max":0,"o":"m 15 604 l 179 604 l 179 0 l 390 0 l 390 876 l 228 876 b 15 743 196 785 138 743 z "},"2":{"ha":718,"x_min":0,"x_max":0,"o":"m 340 175 l 461 271 b 689 613 599 378 689 460 b 364 892 689 772 574 892 b 31 585 165 892 31 771 b 42 503 31 558 36 531 l 247 497 b 238 571 242 517 238 539 b 357 714 238 654 274 714 b 468 600 436 714 468 665 b 276 343 468 508 411 453 l 35 147 l 35 0 l 704 0 l 704 175 z "},"3":{"ha":744,"x_min":0,"x_max":0,"o":"m 501 253 b 381 153 501 188 447 153 b 229 293 290 153 232 199 l 22 300 b 379 -17 22 106 156 -17 b 717 238 582 -17 717 78 b 536 443 717 346 649 425 b 696 633 618 454 696 526 b 376 892 696 788 579 892 b 33 569 161 892 33 750 l 236 561 b 369 722 236 656 283 722 b 488 613 447 722 488 678 b 371 507 488 539 431 507 b 300 511 344 507 315 508 l 300 357 b 368 361 324 360 347 361 b 501 253 444 361 501 325 z "},"4":{"ha":804,"x_min":0,"x_max":0,"o":"m 667 875 l 413 875 l 25 389 l 25 196 l 460 196 l 460 0 l 667 0 l 667 196 l 786 196 l 786 372 l 667 372 z m 460 690 l 460 372 l 204 372 z "},"5":{"ha":733,"x_min":0,"x_max":0,"o":"m 644 875 l 104 875 b 47 382 100 731 68 501 l 250 367 b 378 435 274 406 313 435 b 513 292 465 435 513 371 b 376 153 513 206 458 153 b 236 293 289 153 238 206 l 33 308 b 376 -17 26 108 149 -17 b 708 292 568 -17 708 101 b 404 593 708 461 607 593 b 239 540 324 593 271 569 b 260 690 246 576 257 651 l 644 690 z "},"6":{"ha":776,"x_min":0,"x_max":0,"o":"m 411 725 b 540 617 488 725 532 685 l 738 621 b 414 892 721 793 600 892 b 36 431 163 892 36 699 b 408 -17 36 156 167 -17 b 746 286 607 -17 746 100 b 440 572 746 454 631 572 b 229 471 343 572 267 532 b 411 725 235 621 296 725 z m 265 282 b 404 415 265 363 317 415 b 546 282 494 415 546 363 b 406 149 546 203 494 149 b 265 282 318 149 265 204 z "},"7":{"ha":701,"x_min":0,"x_max":0,"o":"m 450 686 b 199 0 274 494 203 290 l 429 0 b 679 714 431 276 453 488 l 679 875 l 22 875 l 22 686 z "},"8":{"ha":767,"x_min":0,"x_max":0,"o":"m 383 739 b 507 628 458 739 507 700 b 383 521 507 558 458 521 b 263 628 311 521 263 558 b 383 739 263 700 311 739 z m 383 375 b 525 260 474 375 525 335 b 383 142 525 183 474 142 b 242 260 294 142 242 183 b 383 375 242 335 294 375 z m 383 -17 b 738 238 608 -17 738 82 b 572 450 738 349 668 426 b 710 649 661 486 710 547 b 383 892 710 800 575 892 b 57 649 192 892 57 800 b 194 450 57 547 106 486 b 29 238 99 426 29 349 b 383 -17 29 82 158 -17 z "},"9":{"ha":776,"x_min":0,"x_max":0,"o":"m 365 150 b 236 258 289 150 244 190 l 39 254 b 363 -17 56 82 176 -17 b 740 444 614 -17 740 176 b 368 892 740 719 610 892 b 31 589 169 892 31 775 b 336 303 31 421 146 303 b 547 404 433 303 510 343 b 365 150 542 254 481 150 z m 511 593 b 372 460 511 513 460 460 b 231 593 282 460 231 513 b 371 726 231 672 282 726 b 511 593 458 726 511 671 z "}," ":{"ha":250,"x_min":0,"x_max":0,"o":""},"!":{"ha":310,"x_min":0,"x_max":0,"o":"m 46 0 l 264 0 l 264 217 l 46 217 z m 49 875 l 49 646 l 93 278 l 218 278 l 263 646 l 263 875 z "},"\"":{"ha":486,"x_min":0,"x_max":0,"o":"m 46 525 l 208 525 l 208 875 l 46 875 z m 278 525 l 440 525 l 440 875 l 278 875 z "},"#":{"ha":853,"x_min":0,"x_max":0,"o":"m 769 357 l 629 357 l 667 518 l 800 518 l 825 644 l 697 644 l 753 875 l 600 875 l 544 644 l 406 644 l 461 875 l 308 875 l 253 644 l 110 644 l 85 518 l 222 518 l 185 357 l 54 357 l 28 231 l 154 231 l 100 0 l 253 0 l 307 231 l 446 231 l 392 0 l 544 0 l 599 231 l 743 231 z m 375 518 l 514 518 l 476 357 l 338 357 z "},"$":{"ha":826,"x_min":0,"x_max":0,"o":"m 31 311 b 360 -12 31 121 164 7 l 360 -140 l 464 -140 l 464 -15 b 785 257 647 -6 785 86 b 525 515 785 400 703 483 l 464 526 l 464 724 b 582 574 531 704 578 651 l 767 579 b 464 888 764 754 657 867 l 464 1000 l 360 1000 l 360 890 b 53 614 169 878 53 775 b 289 364 53 465 150 388 l 360 351 l 360 151 b 219 318 283 171 225 224 z m 586 243 b 464 144 586 186 539 151 l 464 333 b 586 243 539 321 586 300 z m 250 632 b 360 731 250 692 289 724 l 360 544 b 250 632 294 557 250 576 z "},"%":{"ha":1085,"x_min":0,"x_max":0,"o":"m 171 650 b 253 779 171 742 200 779 b 336 650 306 779 336 742 b 253 522 336 558 306 522 b 171 650 200 522 171 558 z m 31 650 b 253 408 31 500 133 408 b 476 650 372 408 476 500 b 253 892 476 801 372 892 b 31 650 133 892 31 801 z m 915 225 b 832 96 915 133 885 96 b 750 225 779 96 750 133 b 832 353 750 317 779 353 b 915 225 885 353 915 317 z m 842 875 l 701 875 l 243 0 l 383 0 z m 1056 225 b 832 467 1056 375 951 467 b 610 225 713 467 610 375 b 832 -17 610 74 713 -17 b 1056 225 951 -17 1056 74 z "},"&":{"ha":925,"x_min":0,"x_max":0,"o":"m 693 453 b 624 303 676 399 653 347 l 482 446 b 660 685 604 511 660 569 b 401 892 660 800 568 892 b 121 658 249 892 121 806 b 204 468 121 576 154 525 b 25 231 86 407 25 339 b 340 -17 25 68 161 -17 b 601 61 440 -17 526 13 b 781 -11 676 0 735 -11 b 914 22 840 -11 888 4 l 914 144 b 842 136 883 138 865 136 b 738 188 796 136 772 153 b 874 444 801 267 847 358 z m 351 139 b 225 240 279 139 225 171 b 307 360 225 296 257 331 l 488 172 b 351 139 447 151 401 139 z m 313 664 b 401 749 313 715 349 749 b 482 669 454 749 482 713 b 382 547 482 615 457 585 b 313 664 347 582 313 618 z "},"’":{"ha":301,"x_min":0,"x_max":0,"o":"m 44 683 l 140 683 b 44 606 140 626 107 608 l 44 507 b 258 694 190 511 258 567 l 258 875 l 44 875 z "},"(":{"ha":463,"x_min":0,"x_max":0,"o":"m 61 400 b 258 -117 61 211 135 18 l 443 -117 b 256 400 299 49 256 224 b 443 917 256 576 299 751 l 258 917 b 61 400 135 782 61 589 z "},")":{"ha":463,"x_min":0,"x_max":0,"o":"m 401 400 b 203 917 401 589 326 782 l 18 917 b 206 400 163 751 206 576 b 18 -117 206 224 163 49 l 203 -117 b 401 400 326 18 401 211 z "},"*":{"ha":519,"x_min":0,"x_max":0,"o":"m 15 654 l 158 608 l 71 486 l 171 414 l 260 535 l 349 414 l 450 488 l 360 608 l 504 656 l 465 774 l 322 726 l 322 878 l 197 878 l 197 725 l 53 774 z "},"+":{"ha":851,"x_min":0,"x_max":0,"o":"m 343 796 l 343 515 l 63 515 l 63 347 l 343 347 l 343 68 l 510 68 l 510 347 l 790 347 l 790 515 l 510 515 l 510 796 z "},",":{"ha":306,"x_min":0,"x_max":0,"o":"m 44 0 l 140 0 b 44 -85 140 -57 107 -83 l 44 -185 b 261 13 189 -181 261 -117 l 261 217 l 44 217 z "},"-":{"ha":496,"x_min":0,"x_max":0,"o":"m 67 268 l 428 268 l 428 443 l 67 443 z "},".":{"ha":306,"x_min":0,"x_max":0,"o":"m 44 0 l 261 0 l 261 217 l 44 217 z "},"/":{"ha":497,"x_min":0,"x_max":0,"o":"m -28 -115 l 158 -115 l 496 915 l 310 915 z "},":":{"ha":306,"x_min":0,"x_max":0,"o":"m 44 0 l 261 0 l 261 217 l 44 217 z m 44 385 l 261 385 l 261 601 l 44 601 z "},";":{"ha":306,"x_min":0,"x_max":0,"o":"m 44 0 l 140 0 b 44 -85 140 -57 107 -83 l 44 -185 b 261 13 189 -181 261 -117 l 261 217 l 44 217 z m 44 385 l 261 385 l 261 601 l 44 601 z "},"<":{"ha":654,"x_min":0,"x_max":0,"o":"m 46 315 l 600 67 l 600 260 l 197 428 l 600 597 l 600 789 l 46 542 z "},"=":{"ha":879,"x_min":0,"x_max":0,"o":"m 76 215 l 804 215 l 804 369 l 76 369 z m 76 499 l 804 499 l 804 653 l 76 653 z "},">":{"ha":654,"x_min":0,"x_max":0,"o":"m 608 542 l 53 789 l 53 597 l 456 428 l 53 260 l 53 67 l 608 315 z "},"?":{"ha":717,"x_min":0,"x_max":0,"o":"m 460 279 b 531 381 461 318 485 344 b 686 625 614 443 686 508 b 363 892 686 772 572 892 b 29 585 164 892 29 771 b 40 503 29 558 35 531 l 246 497 b 236 571 240 517 236 539 b 361 714 236 654 272 714 b 467 614 431 714 467 669 b 360 460 467 543 417 506 b 265 279 296 408 268 349 z m 253 0 l 469 0 l 469 217 l 253 217 z "},"@":{"ha":1075,"x_min":0,"x_max":0,"o":"m 785 147 b 747 218 750 147 733 167 l 826 533 l 668 533 l 649 467 b 508 544 629 513 582 544 b 263 246 360 544 263 406 b 443 47 263 119 335 47 b 594 139 515 47 561 79 b 751 47 617 85 664 47 b 1042 381 897 47 1042 153 b 589 788 1042 615 871 788 b 38 246 254 788 38 554 b 526 -197 38 -39 243 -197 b 846 -118 646 -197 753 -174 l 814 -28 b 528 -90 719 -74 633 -90 b 163 246 314 -90 163 25 b 589 678 163 507 329 678 b 922 381 807 678 922 564 b 785 147 922 219 869 147 z m 597 283 b 496 168 581 200 539 168 b 433 256 450 168 433 201 b 542 431 433 338 475 431 b 604 313 600 431 619 388 z "},"A":{"ha":944,"x_min":0,"x_max":0,"o":"m 354 875 l 4 0 l 215 0 l 289 189 l 642 189 l 717 0 l 942 0 l 589 875 z m 463 635 l 468 635 l 581 347 l 350 347 z "},"B":{"ha":867,"x_min":0,"x_max":0,"o":"m 829 240 b 646 454 829 365 750 433 b 804 635 739 469 804 538 b 482 875 804 781 706 875 l 71 875 l 71 0 l 508 0 b 829 240 713 0 829 89 z m 476 363 b 614 265 571 363 614 324 b 478 169 614 207 571 169 l 275 169 l 275 363 z m 275 707 l 458 707 b 586 613 550 707 586 667 b 458 521 586 561 550 521 l 275 521 z "},"C":{"ha":928,"x_min":0,"x_max":0,"o":"m 32 438 b 476 -17 32 168 224 -17 b 899 369 740 -17 883 150 l 697 378 b 475 169 685 267 621 169 b 249 438 335 169 249 274 b 475 706 249 601 335 706 b 697 497 621 706 685 608 l 899 506 b 476 892 883 725 740 892 b 32 438 224 892 32 707 z "},"D":{"ha":906,"x_min":0,"x_max":0,"o":"m 282 167 l 282 708 l 396 708 b 657 439 561 708 657 608 b 396 167 657 267 561 167 z m 71 0 l 410 0 b 875 438 697 0 875 164 b 410 875 875 711 697 875 l 71 875 z "},"E":{"ha":788,"x_min":0,"x_max":0,"o":"m 746 174 l 278 174 l 278 358 l 632 358 l 632 529 l 278 529 l 278 701 l 733 701 l 733 875 l 71 875 l 71 0 l 746 0 z "},"F":{"ha":753,"x_min":0,"x_max":0,"o":"m 281 0 l 281 335 l 613 335 l 613 507 l 281 507 l 281 701 l 718 701 l 718 875 l 71 875 l 71 0 z "},"G":{"ha":968,"x_min":0,"x_max":0,"o":"m 457 -17 b 721 110 574 -17 674 22 l 721 0 l 906 0 l 906 449 l 497 449 l 497 296 l 707 296 b 499 161 676 210 594 161 b 249 438 339 161 249 271 b 482 706 249 600 336 706 b 694 525 608 706 683 635 l 900 532 b 478 892 881 753 732 892 b 32 438 228 892 32 707 b 457 -17 32 167 214 -17 z "},"H":{"ha":946,"x_min":0,"x_max":0,"o":"m 282 0 l 282 358 l 664 358 l 664 0 l 875 0 l 875 875 l 664 875 l 664 529 l 282 529 l 282 875 l 71 875 l 71 0 z "},"I":{"ha":353,"x_min":0,"x_max":0,"o":"m 71 875 l 71 0 l 282 0 l 282 875 z "},"J":{"ha":765,"x_min":0,"x_max":0,"o":"m 497 875 l 497 331 b 363 161 497 215 456 161 b 215 344 268 161 222 226 l 13 336 b 364 -17 15 108 147 -17 b 708 314 567 -17 708 85 l 708 875 z "},"K":{"ha":874,"x_min":0,"x_max":0,"o":"m 885 0 l 517 500 l 863 875 l 619 875 l 282 504 l 282 875 l 71 875 l 71 0 l 282 0 l 282 275 l 364 363 l 632 0 z "},"L":{"ha":761,"x_min":0,"x_max":0,"o":"m 71 875 l 71 0 l 726 0 l 726 174 l 282 174 l 282 875 z "},"M":{"ha":1096,"x_min":0,"x_max":0,"o":"m 631 0 l 808 646 l 814 646 l 814 0 l 1025 0 l 1025 875 l 704 875 l 557 290 l 553 290 l 399 875 l 71 875 l 71 0 l 265 0 l 265 646 l 271 646 l 450 0 z "},"N":{"ha":910,"x_min":0,"x_max":0,"o":"m 274 875 l 71 875 l 71 0 l 265 0 l 265 558 l 671 0 l 839 0 l 839 875 l 646 875 l 646 350 z "},"O":{"ha":963,"x_min":0,"x_max":0,"o":"m 931 438 b 481 892 931 707 736 892 b 32 438 226 892 32 707 b 481 -17 32 168 226 -17 b 931 438 736 -17 931 168 z m 714 438 b 481 168 714 275 624 168 b 249 438 339 168 249 275 b 481 707 249 600 339 707 b 714 438 624 707 714 600 z "},"P":{"ha":813,"x_min":0,"x_max":0,"o":"m 281 454 l 281 706 l 432 706 b 594 579 547 706 594 661 b 432 454 594 497 547 454 z m 281 285 l 440 285 b 799 581 667 285 799 392 b 440 875 799 769 667 875 l 71 875 l 71 0 l 281 0 z "},"Q":{"ha":963,"x_min":0,"x_max":0,"o":"m 931 438 b 481 892 931 707 736 892 b 32 438 226 892 32 707 b 481 -17 32 168 226 -17 b 699 36 560 -17 635 1 l 775 -51 l 890 40 l 815 126 b 931 438 886 206 931 313 z m 717 438 b 685 279 717 374 706 321 l 600 378 l 488 285 l 576 181 b 481 165 549 171 517 165 b 249 438 339 165 249 275 b 481 707 249 600 339 707 b 717 438 624 707 717 600 z "},"R":{"ha":874,"x_min":0,"x_max":0,"o":"m 843 0 b 797 203 814 32 810 74 b 642 378 788 306 735 360 b 831 601 749 392 831 472 b 493 875 831 769 719 875 l 71 875 l 71 0 l 278 0 l 278 304 l 454 304 b 593 174 542 304 586 272 b 629 0 600 81 611 24 z m 278 467 l 278 706 l 460 706 b 624 585 569 706 624 663 b 460 467 624 499 569 467 z "},"S":{"ha":828,"x_min":0,"x_max":0,"o":"m 28 311 b 428 -17 28 99 194 -17 b 785 257 628 -17 785 76 b 524 521 785 400 703 489 l 360 550 b 257 631 296 563 257 581 b 396 726 257 690 307 726 b 574 574 497 726 568 676 l 768 579 b 397 892 764 774 635 892 b 50 613 185 892 50 785 b 288 360 50 464 149 386 l 451 331 b 579 243 528 315 579 301 b 428 149 579 185 521 149 b 221 318 319 149 229 197 z "},"T":{"ha":889,"x_min":0,"x_max":0,"o":"m 547 0 l 547 701 l 856 701 l 856 875 l 33 875 l 33 701 l 338 701 l 338 0 z "},"U":{"ha":903,"x_min":0,"x_max":0,"o":"m 451 -17 b 840 344 671 -17 840 89 l 840 875 l 631 875 l 631 374 b 451 161 631 235 581 161 b 274 375 324 161 274 235 l 274 875 l 64 875 l 64 344 b 451 -17 64 89 233 -17 z "},"V":{"ha":910,"x_min":0,"x_max":0,"o":"m 567 0 l 906 875 l 696 875 l 464 260 l 458 260 l 224 875 l 4 875 l 343 0 z "},"W":{"ha":1228,"x_min":0,"x_max":0,"o":"m 713 875 l 522 875 l 368 288 l 363 288 l 214 875 l 4 875 l 232 0 l 456 0 l 610 585 l 615 585 l 769 0 l 996 0 l 1225 875 l 1021 875 l 874 288 l 868 288 z "},"X":{"ha":918,"x_min":0,"x_max":0,"o":"m 889 875 l 656 875 l 467 611 l 276 875 l 29 875 l 340 449 l 4 0 l 236 0 l 450 297 l 668 0 l 915 0 l 578 461 z "},"Y":{"ha":886,"x_min":0,"x_max":0,"o":"m 451 538 l 238 875 l 4 875 l 340 335 l 340 0 l 544 0 l 544 335 l 882 875 l 656 875 z "},"Z":{"ha":815,"x_min":0,"x_max":0,"o":"m 307 174 l 761 713 l 761 875 l 46 875 l 46 701 l 493 701 l 42 158 l 42 0 l 774 0 l 774 174 z "},"[":{"ha":436,"x_min":0,"x_max":0,"o":"m 276 776 l 401 776 l 401 917 l 96 917 l 96 -117 l 401 -117 l 401 24 l 276 24 z "},"\\":{"ha":497,"x_min":0,"x_max":0,"o":"m 186 915 l 1 915 l 339 -115 l 525 -115 z "},"]":{"ha":436,"x_min":0,"x_max":0,"o":"m 160 24 l 35 24 l 35 -117 l 340 -117 l 340 917 l 35 917 l 35 776 l 160 776 z "},"^":{"ha":557,"x_min":0,"x_max":0,"o":"m 174 875 l 14 586 l 196 586 l 279 747 l 361 586 l 543 586 l 383 875 z "},"_":{"ha":529,"x_min":0,"x_max":0,"o":"m 28 -200 l 501 -200 l 501 -47 l 28 -47 z "},"‘":{"ha":301,"x_min":0,"x_max":0,"o":"m 258 701 l 161 701 b 258 779 163 758 194 776 l 258 878 b 44 690 111 875 44 818 l 44 510 l 258 510 z "},"a":{"ha":721,"x_min":0,"x_max":0,"o":"m 428 261 b 296 118 428 174 369 118 b 225 176 253 118 225 140 b 326 253 225 225 264 240 l 428 274 z m 625 393 b 349 633 625 561 510 633 b 53 410 172 633 74 542 l 239 396 b 338 483 250 447 279 483 b 428 390 399 483 428 449 l 428 379 l 256 349 b 31 154 119 322 31 272 b 232 -14 31 49 108 -14 b 439 94 328 -14 404 24 b 585 -14 457 25 511 -14 b 715 26 646 -14 685 4 l 715 133 b 664 122 697 125 682 122 b 625 168 639 122 625 136 z "},"b":{"ha":779,"x_min":0,"x_max":0,"o":"m 265 315 b 406 476 265 414 322 476 b 546 308 500 476 546 408 b 406 139 546 207 500 139 b 265 301 322 139 265 201 z m 256 111 b 469 -17 289 36 367 -17 b 749 308 654 -17 749 126 b 474 633 749 489 654 633 b 265 506 367 633 296 579 l 265 875 l 65 875 l 65 0 l 219 0 z "},"c":{"ha":693,"x_min":0,"x_max":0,"o":"m 31 308 b 364 -17 31 113 171 -17 b 665 251 547 -17 650 103 l 499 265 b 365 136 485 182 440 136 b 233 308 288 136 233 190 b 365 481 233 426 288 481 b 499 353 440 481 485 436 l 665 365 b 364 633 650 513 547 633 b 31 308 171 633 31 503 z "},"d":{"ha":778,"x_min":0,"x_max":0,"o":"m 513 301 b 374 139 513 201 456 139 b 233 308 278 139 233 207 b 374 476 233 408 278 476 b 513 315 456 476 513 414 z m 513 0 l 714 0 l 714 875 l 513 875 l 513 506 b 306 633 483 579 411 633 b 31 308 124 633 31 489 b 306 -17 31 126 124 -17 b 513 110 411 -17 483 38 z "},"e":{"ha":706,"x_min":0,"x_max":0,"o":"m 507 218 b 372 135 485 161 442 135 b 228 264 294 135 233 182 l 672 264 l 672 325 b 361 633 672 493 565 633 b 31 299 172 633 31 493 b 365 -17 31 103 169 -17 b 668 203 526 -17 636 63 z m 231 371 b 360 488 242 436 279 488 b 479 371 436 488 475 432 z "},"f":{"ha":442,"x_min":0,"x_max":0,"o":"m 90 476 l 90 0 l 289 0 l 289 476 l 449 476 l 449 617 l 289 617 l 289 668 b 349 747 289 714 306 747 b 418 696 383 747 404 728 l 543 735 b 328 892 518 836 442 892 b 90 653 183 892 90 807 l 90 617 l 0 617 l 0 476 z "},"g":{"ha":707,"x_min":0,"x_max":0,"o":"m 632 422 b 610 507 632 454 624 482 b 706 519 640 515 676 519 l 706 674 b 538 582 639 674 574 632 b 340 633 486 615 415 633 b 50 422 171 633 50 553 b 138 265 50 356 82 301 b 35 139 74 242 35 196 b 122 21 35 86 67 39 b 3 -87 51 14 3 -31 b 325 -242 3 -203 151 -242 b 706 -19 522 -242 706 -174 b 497 156 706 82 635 156 l 244 156 b 188 197 204 156 188 174 b 204 232 188 213 194 224 b 340 213 244 219 290 213 b 632 422 510 213 632 293 z m 174 -64 b 231 -17 174 -32 199 -17 l 449 -17 b 519 -61 494 -17 519 -28 b 326 -131 519 -107 438 -131 b 174 -64 236 -131 174 -112 z m 425 422 b 342 324 425 360 390 324 b 260 422 294 324 260 360 b 342 518 260 483 294 518 b 425 422 390 518 425 483 z "},"h":{"ha":747,"x_min":0,"x_max":0,"o":"m 265 314 b 386 475 265 411 306 475 b 489 338 460 475 489 426 l 489 0 l 689 0 l 689 386 b 467 633 689 518 633 633 b 265 521 374 633 299 589 l 265 875 l 65 875 l 65 0 l 265 0 z "},"i":{"ha":331,"x_min":0,"x_max":0,"o":"m 65 617 l 65 0 l 265 0 l 265 617 z m 64 692 l 268 692 l 268 875 l 64 875 z "},"j":{"ha":331,"x_min":0,"x_max":0,"o":"m 265 617 l 65 617 l 65 -28 b 6 -101 65 -79 44 -101 b -86 -75 -25 -101 -54 -94 l -119 -197 b 50 -242 -81 -225 -17 -242 b 265 -35 185 -242 265 -178 z m 64 692 l 268 692 l 268 875 l 64 875 z "},"k":{"ha":739,"x_min":0,"x_max":0,"o":"m 265 201 l 326 261 l 519 0 l 746 0 l 476 372 l 736 617 l 499 617 l 265 389 l 265 875 l 65 875 l 65 0 l 265 0 z "},"l":{"ha":331,"x_min":0,"x_max":0,"o":"m 65 875 l 65 0 l 265 0 l 265 875 z "},"m":{"ha":1140,"x_min":0,"x_max":0,"o":"m 654 510 b 460 633 628 583 568 633 b 265 521 367 633 299 589 l 265 617 l 65 617 l 65 0 l 265 0 l 265 314 b 378 475 265 411 301 475 b 474 338 451 475 474 426 l 474 0 l 675 0 l 675 314 b 788 475 675 411 710 475 b 882 338 860 475 882 426 l 882 0 l 1082 0 l 1082 386 b 863 633 1082 517 1031 633 b 654 510 761 633 686 579 z "},"n":{"ha":747,"x_min":0,"x_max":0,"o":"m 265 314 b 386 475 265 411 306 475 b 489 338 460 475 489 426 l 489 0 l 689 0 l 689 386 b 467 633 689 518 633 633 b 265 521 374 633 299 589 l 265 617 l 65 617 l 65 0 l 265 0 z "},"o":{"ha":726,"x_min":0,"x_max":0,"o":"m 233 308 b 363 482 233 411 274 482 b 493 308 450 482 493 411 b 363 135 493 206 450 135 b 233 308 274 135 233 206 z m 696 308 b 363 633 696 499 560 633 b 31 308 165 633 31 499 b 363 -17 31 117 165 -17 b 696 308 560 -17 696 117 z "},"p":{"ha":779,"x_min":0,"x_max":0,"o":"m 265 315 b 406 476 265 414 322 476 b 546 308 500 476 546 408 b 406 139 546 207 500 139 b 265 301 322 139 265 201 z m 265 110 b 474 -17 296 38 367 -17 b 749 308 654 -17 749 126 b 474 633 749 489 654 633 b 265 506 367 633 296 579 l 265 617 l 65 617 l 65 -225 l 265 -225 z "},"q":{"ha":778,"x_min":0,"x_max":0,"o":"m 513 301 b 374 139 513 201 456 139 b 233 308 278 139 233 207 b 374 476 233 408 278 476 b 513 315 456 476 513 414 z m 513 -225 l 714 -225 l 714 617 l 513 617 l 513 506 b 306 633 483 579 411 633 b 31 308 124 633 31 489 b 306 -17 31 126 124 -17 b 513 110 411 -17 483 38 z "},"r":{"ha":531,"x_min":0,"x_max":0,"o":"m 522 608 b 436 633 506 622 474 633 b 265 504 353 633 289 574 l 265 617 l 65 617 l 65 0 l 265 0 l 265 292 b 404 446 265 399 321 446 b 510 421 447 446 478 439 z "},"s":{"ha":632,"x_min":0,"x_max":0,"o":"m 21 201 b 325 -17 32 51 158 -17 b 603 185 493 -17 603 56 b 390 383 603 303 525 363 l 271 404 b 221 449 240 408 221 424 b 301 503 221 482 251 503 b 431 418 378 503 421 472 l 596 424 b 304 633 583 556 479 633 b 35 429 139 633 35 549 b 253 236 35 307 111 258 l 347 221 b 417 165 397 213 417 196 b 326 113 417 132 381 113 b 196 206 251 113 204 146 z "},"t":{"ha":482,"x_min":0,"x_max":0,"o":"m 88 165 b 278 -17 88 26 178 -17 b 457 38 358 -17 411 3 l 457 169 b 357 144 419 153 388 144 b 285 219 310 144 285 167 l 285 476 l 449 476 l 449 617 l 285 617 l 285 788 l 161 788 l 140 706 b 46 606 125 649 107 617 l 1 599 l 1 476 l 88 476 z "},"u":{"ha":739,"x_min":0,"x_max":0,"o":"m 474 303 b 361 142 474 204 436 142 b 258 278 288 142 258 190 l 258 617 l 58 617 l 58 229 b 278 -17 58 97 111 -17 b 474 96 371 -17 440 26 l 474 0 l 675 0 l 675 617 l 474 617 z "},"v":{"ha":704,"x_min":0,"x_max":0,"o":"m 469 0 l 704 617 l 508 617 l 363 214 l 357 214 l 211 617 l 0 617 l 235 0 z "},"w":{"ha":988,"x_min":0,"x_max":0,"o":"m 583 617 l 422 617 l 324 242 l 318 242 l 200 617 l 0 617 l 196 0 l 392 0 l 490 372 l 496 372 l 596 0 l 792 0 l 988 617 l 806 617 l 688 242 l 682 242 z "},"x":{"ha":706,"x_min":0,"x_max":0,"o":"m 685 617 l 476 617 l 358 456 l 243 617 l 19 617 l 244 315 l 0 0 l 208 0 l 346 183 l 482 0 l 706 0 l 460 324 z "},"y":{"ha":714,"x_min":0,"x_max":0,"o":"m 360 -225 l 714 617 l 517 617 l 365 232 l 360 232 l 211 617 l 0 617 l 253 -6 l 163 -225 z "},"z":{"ha":621,"x_min":0,"x_max":0,"o":"m 331 471 l 38 138 l 38 0 l 583 0 l 583 146 l 279 146 l 576 481 l 576 617 l 44 617 l 44 471 z "},"{":{"ha":461,"x_min":0,"x_max":0,"o":"m 46 331 l 81 331 b 146 229 138 331 146 306 l 146 64 b 318 -117 146 -57 211 -117 l 426 -117 l 426 24 l 371 24 b 328 75 331 24 328 47 l 328 240 b 213 400 328 336 297 386 b 328 560 297 414 328 464 l 328 725 b 371 776 328 753 331 776 l 426 776 l 426 917 l 318 917 b 146 736 211 917 146 857 l 146 571 b 81 469 146 494 138 469 l 46 469 z "},"|":{"ha":317,"x_min":0,"x_max":0,"o":"m 71 -115 l 246 -115 l 246 915 l 71 915 z "},"}":{"ha":461,"x_min":0,"x_max":0,"o":"m 415 469 l 381 469 b 315 571 324 469 315 494 l 315 736 b 143 917 315 857 250 917 l 35 917 l 35 776 l 90 776 b 133 725 131 776 133 753 l 133 560 b 249 400 133 464 164 414 b 133 240 164 386 133 336 l 133 75 b 90 24 133 47 131 24 l 35 24 l 35 -117 l 143 -117 b 315 64 250 -117 315 -57 l 315 229 b 381 331 315 306 324 331 l 415 331 z "},"~":{"ha":557,"x_min":0,"x_max":0,"o":"m 157 285 b 207 342 161 325 181 342 b 372 279 260 342 301 279 b 506 490 460 279 506 365 l 401 490 b 350 432 397 447 378 432 b 185 494 299 432 257 494 b 53 285 97 494 53 408 z "},"¡":{"ha":310,"x_min":0,"x_max":0,"o":"m 46 503 l 264 503 l 264 719 l 46 719 z m 263 -156 l 263 74 l 218 442 l 93 442 l 49 74 l 49 -156 z "},"¢":{"ha":717,"x_min":0,"x_max":0,"o":"m 326 -131 l 435 -131 l 435 -11 b 688 251 586 13 675 121 l 525 263 b 435 139 511 199 481 157 l 435 479 b 524 356 481 460 513 418 l 688 365 b 435 628 675 494 586 603 l 435 749 l 326 749 l 326 631 b 31 308 151 614 31 489 b 326 -14 31 126 151 1 z m 226 308 b 326 483 226 410 265 467 l 326 133 b 226 308 265 151 226 207 z "},"£":{"ha":840,"x_min":0,"x_max":0,"o":"m 360 614 b 464 726 360 682 394 726 b 594 565 544 726 592 667 l 772 574 b 449 892 772 767 658 892 b 140 619 268 892 140 785 b 172 490 140 565 154 525 l 78 490 l 78 375 l 240 375 b 265 290 253 350 263 322 b 186 306 240 300 214 306 b 15 149 86 306 15 243 b 186 -17 15 46 86 -17 b 368 63 260 -17 322 13 b 599 -17 426 21 501 -17 b 810 285 743 -17 828 72 l 664 292 b 553 167 664 200 635 167 b 435 200 510 167 471 181 b 444 294 440 229 444 261 b 433 375 444 324 440 350 l 564 375 l 564 490 l 388 490 b 360 614 372 526 360 565 z m 189 103 b 139 146 163 103 139 119 b 186 189 139 174 157 189 b 254 157 207 189 229 176 b 189 103 240 121 219 103 z "},"⁄":{"ha":693,"x_min":0,"x_max":0,"o":"m 685 875 l 544 875 l 11 0 l 150 0 z "},"¥":{"ha":879,"x_min":0,"x_max":0,"o":"m 97 351 l 338 351 l 338 276 l 97 276 l 97 151 l 338 151 l 338 0 l 542 0 l 542 151 l 782 151 l 782 276 l 542 276 l 542 351 l 782 351 l 782 476 l 621 476 l 876 875 l 650 875 l 447 540 l 236 875 l 3 875 l 257 476 l 97 476 z "},"ƒ":{"ha":621,"x_min":0,"x_max":0,"o":"m 449 617 b 560 738 464 690 490 738 b 596 735 569 738 582 736 l 596 881 b 510 890 567 888 538 890 b 258 676 385 890 288 814 l 226 522 l 90 522 l 90 376 l 196 376 l 138 94 b 35 -26 122 19 103 -26 b 0 -24 24 -26 13 -26 l 0 -171 b 72 -176 25 -174 50 -176 b 328 35 206 -176 297 -108 l 399 376 l 553 376 l 553 522 l 429 522 z "},"§":{"ha":700,"x_min":0,"x_max":0,"o":"m 672 340 b 476 572 672 458 600 522 l 326 633 b 267 699 279 653 267 672 b 347 763 267 742 303 763 b 475 676 419 763 465 732 l 639 682 b 350 892 628 814 522 892 b 81 688 185 892 81 806 b 117 579 81 642 94 608 b 28 419 65 543 28 482 b 224 188 28 303 99 238 l 374 128 b 433 63 421 107 433 88 b 353 -3 433 19 396 -3 b 224 85 281 -3 233 29 l 60 79 b 349 -131 72 -53 178 -131 b 619 74 515 -131 619 -46 b 583 181 619 118 606 153 b 672 340 633 217 672 276 z m 256 485 l 428 403 b 496 322 479 379 496 361 b 465 265 496 296 482 276 b 444 275 458 268 451 271 l 271 357 b 203 439 219 382 203 400 b 233 494 203 465 218 483 z "},"'":{"ha":265,"x_min":0,"x_max":0,"o":"m 46 525 l 219 525 l 219 875 l 46 875 z "},"“":{"ha":578,"x_min":0,"x_max":0,"o":"m 258 701 l 161 701 b 258 779 163 758 194 776 l 258 878 b 44 690 111 875 44 818 l 44 510 l 258 510 z m 533 701 l 439 701 b 533 779 439 758 471 776 l 533 878 b 321 690 389 875 321 818 l 321 510 l 533 510 z "},"«":{"ha":649,"x_min":0,"x_max":0,"o":"m 46 224 l 301 49 l 301 221 l 169 311 l 301 403 l 301 575 l 46 400 z m 346 224 l 601 49 l 601 221 l 469 311 l 601 403 l 601 575 l 346 400 z "},"‹":{"ha":349,"x_min":0,"x_max":0,"o":"m 46 224 l 301 49 l 301 221 l 169 311 l 301 403 l 301 575 l 46 400 z "},"›":{"ha":349,"x_min":0,"x_max":0,"o":"m 303 400 l 47 575 l 47 403 l 179 311 l 47 221 l 47 49 l 303 224 z "},"ﬁ":{"ha":754,"x_min":0,"x_max":0,"o":"m 90 476 l 90 0 l 289 0 l 289 476 l 488 476 l 488 0 l 689 0 l 689 617 l 289 617 l 289 636 b 388 746 289 707 328 746 b 479 688 438 746 465 721 l 628 736 b 374 892 586 836 511 892 b 90 633 204 892 90 796 l 90 617 l 0 617 l 0 476 z "},"ﬂ":{"ha":754,"x_min":0,"x_max":0,"o":"m 442 861 b 307 892 406 881 360 892 b 90 654 168 892 90 808 l 90 617 l 0 617 l 0 476 l 90 476 l 90 0 l 289 0 l 289 476 l 417 476 l 417 617 l 289 617 l 289 661 b 353 740 289 707 310 740 b 419 721 381 740 399 733 z m 488 875 l 488 0 l 689 0 l 689 875 z "},"–":{"ha":694,"x_min":0,"x_max":0,"o":"m 67 286 l 625 286 l 625 421 l 67 421 z "},"†":{"ha":468,"x_min":0,"x_max":0,"o":"m 39 633 l 171 633 l 171 367 l 297 367 l 297 633 l 429 633 l 429 756 l 297 756 l 297 878 l 171 878 l 171 756 l 39 756 z "},"‡":{"ha":482,"x_min":0,"x_max":0,"o":"m 46 467 l 182 467 l 182 367 l 301 367 l 301 467 l 436 467 l 436 578 l 301 578 l 301 668 l 436 668 l 436 779 l 301 779 l 301 878 l 182 878 l 182 779 l 46 779 l 46 668 l 182 668 l 182 578 l 46 578 z "},"·":{"ha":342,"x_min":0,"x_max":0,"o":"m 63 247 l 279 247 l 279 464 l 63 464 z "},"¶":{"ha":783,"x_min":0,"x_max":0,"o":"m 361 0 l 494 0 l 494 744 l 578 744 l 578 0 l 711 0 l 711 875 l 361 875 b 28 610 147 875 28 774 b 361 343 28 444 147 343 z "},"•":{"ha":535,"x_min":0,"x_max":0,"o":"m 489 358 b 268 581 489 490 390 581 b 46 358 144 581 46 490 b 268 138 46 228 144 138 b 489 358 390 138 489 228 z "},"‚":{"ha":301,"x_min":0,"x_max":0,"o":"m 44 0 l 140 0 b 44 -78 140 -57 107 -75 l 44 -176 b 258 11 190 -172 258 -117 l 258 192 l 44 192 z "},"„":{"ha":578,"x_min":0,"x_max":0,"o":"m 321 0 l 418 0 b 321 -78 417 -57 385 -75 l 321 -176 b 533 11 467 -172 533 -117 l 533 192 l 321 192 z m 44 0 l 140 0 b 44 -78 140 -57 107 -75 l 44 -176 b 258 11 190 -172 258 -117 l 258 192 l 44 192 z "},"”":{"ha":578,"x_min":0,"x_max":0,"o":"m 321 683 l 418 683 b 321 606 417 626 385 608 l 321 507 b 533 694 467 511 533 567 l 533 875 l 321 875 z m 44 683 l 140 683 b 44 606 140 626 107 608 l 44 507 b 258 694 190 511 258 567 l 258 875 l 44 875 z "},"»":{"ha":649,"x_min":0,"x_max":0,"o":"m 303 400 l 47 575 l 47 403 l 179 311 l 47 221 l 47 49 l 303 224 z m 603 400 l 347 575 l 347 403 l 479 311 l 347 221 l 347 49 l 603 224 z "},"…":{"ha":915,"x_min":0,"x_max":0,"o":"m 44 0 l 261 0 l 261 217 l 44 217 z m 349 0 l 567 0 l 567 217 l 349 217 z m 654 0 l 871 0 l 871 217 l 654 217 z "},"‰":{"ha":1551,"x_min":0,"x_max":0,"o":"m 171 650 b 253 779 171 742 200 779 b 336 650 306 779 336 742 b 253 522 336 558 306 522 b 171 650 200 522 171 558 z m 31 650 b 253 408 31 500 133 408 b 476 650 372 408 476 500 b 253 892 476 801 372 892 b 31 650 133 892 31 801 z m 915 225 b 832 96 915 133 885 96 b 750 225 779 96 750 133 b 832 353 750 317 779 353 b 915 225 885 353 915 317 z m 1056 225 b 832 467 1056 375 951 467 b 610 225 713 467 610 375 b 832 -17 610 74 713 -17 b 1056 225 951 -17 1056 74 z m 1403 225 b 1319 96 1403 133 1372 96 b 1238 225 1267 96 1238 133 b 1319 353 1238 317 1267 353 b 1403 225 1372 353 1403 317 z m 1543 225 b 1319 467 1543 375 1439 467 b 1097 225 1200 467 1097 375 b 1319 -17 1097 74 1200 -17 b 1543 225 1439 -17 1543 74 z m 842 875 l 701 875 l 243 0 l 383 0 z "},"¿":{"ha":717,"x_min":0,"x_max":0,"o":"m 256 440 b 185 339 254 401 231 375 b 29 94 101 276 29 211 b 353 -172 29 -53 143 -172 b 686 135 551 -172 686 -51 b 675 217 686 161 681 189 l 469 222 b 479 149 475 203 479 181 b 354 6 479 65 443 6 b 249 106 285 6 249 50 b 356 260 249 176 299 214 b 450 440 419 311 447 371 z m 463 719 l 246 719 l 246 503 l 463 503 z "},"`":{"ha":694,"x_min":0,"x_max":0,"o":"m 486 682 l 411 875 l 207 875 l 342 682 z "},"´":{"ha":694,"x_min":0,"x_max":0,"o":"m 351 682 l 486 875 l 282 875 l 207 682 z "},"ˆ":{"ha":694,"x_min":0,"x_max":0,"o":"m 250 875 l 132 682 l 261 682 l 347 765 l 433 682 l 563 682 l 444 875 z "},"˜":{"ha":694,"x_min":0,"x_max":0,"o":"m 235 683 b 281 738 238 722 256 738 b 433 679 329 738 367 679 b 557 872 514 679 557 758 l 460 872 b 414 819 457 833 439 819 b 261 876 365 819 326 876 b 138 683 179 876 138 797 z "},"¯":{"ha":694,"x_min":0,"x_max":0,"o":"m 158 690 l 535 690 l 535 826 l 158 826 z "},"˘":{"ha":694,"x_min":0,"x_max":0,"o":"m 347 682 b 536 875 467 682 536 753 l 421 875 b 347 804 421 826 392 804 b 274 875 303 804 274 826 l 158 875 b 347 682 158 753 228 682 z "},"˙":{"ha":694,"x_min":0,"x_max":0,"o":"m 244 692 l 449 692 l 449 875 l 244 875 z "},"¨":{"ha":694,"x_min":0,"x_max":0,"o":"m 135 690 l 314 690 l 314 872 l 135 872 z m 381 690 l 560 690 l 560 872 l 381 872 z "},"˚":{"ha":694,"x_min":0,"x_max":0,"o":"m 297 800 b 347 850 297 829 314 850 b 397 800 381 850 397 829 b 347 750 397 771 381 750 b 297 800 314 750 297 771 z m 214 800 b 347 672 214 726 267 672 b 481 800 428 672 481 726 b 347 928 481 872 428 928 b 214 800 267 928 214 872 z "},"¸":{"ha":1078,"x_min":0,"x_max":0,"o":"m 699 -142 b 539 -53 699 -65 621 -36 l 593 15 l 524 15 l 438 -108 l 478 -124 b 578 -146 517 -107 578 -104 b 519 -178 578 -169 556 -178 b 401 -144 472 -178 432 -162 l 378 -196 b 535 -243 408 -221 467 -243 b 699 -142 618 -243 699 -217 z "},"˝":{"ha":694,"x_min":0,"x_max":0,"o":"m 239 682 l 358 875 l 168 875 l 110 682 z m 467 682 l 585 875 l 396 875 l 336 682 z "},"˛":{"ha":694,"x_min":0,"x_max":0,"o":"m 335 17 b 224 -144 268 -29 224 -82 b 350 -243 224 -204 272 -243 b 461 -210 407 -243 438 -225 l 461 -118 b 397 -136 440 -128 421 -136 b 357 -99 372 -136 357 -122 b 450 17 357 -65 386 -40 z "},"ˇ":{"ha":694,"x_min":0,"x_max":0,"o":"m 444 682 l 563 875 l 433 875 l 347 793 l 261 875 l 132 875 l 250 682 z "},"—":{"ha":1389,"x_min":0,"x_max":0,"o":"m 67 286 l 1322 286 l 1322 421 l 67 421 z "},"Æ":{"ha":1376,"x_min":0,"x_max":0,"o":"m 531 875 l 4 0 l 225 0 l 350 211 l 661 211 l 661 0 l 1335 0 l 1335 174 l 868 174 l 868 358 l 1221 358 l 1221 529 l 868 529 l 868 701 l 1322 701 l 1322 875 z m 656 726 l 661 726 l 661 371 l 444 371 z "},"ª":{"ha":588,"x_min":0,"x_max":0,"o":"m 342 600 b 244 489 342 531 299 489 b 189 535 210 489 189 507 b 265 594 189 569 218 583 l 342 611 z m 508 706 b 285 897 508 840 415 897 b 44 717 142 897 61 824 l 200 706 b 275 771 210 744 232 771 b 342 701 321 771 342 744 l 342 692 l 206 667 b 26 514 96 647 26 610 b 185 381 26 429 90 381 b 350 469 264 381 321 411 b 472 381 365 413 411 381 b 579 411 521 381 554 394 l 579 503 b 539 493 564 496 553 493 b 508 531 519 493 508 504 z "},"Ł":{"ha":785,"x_min":0,"x_max":0,"o":"m 97 875 l 97 471 l 17 440 l 17 274 l 97 304 l 97 0 l 753 0 l 753 174 l 308 174 l 308 381 l 540 471 l 540 638 l 308 546 l 308 875 z "},"Ø":{"ha":963,"x_min":0,"x_max":0,"o":"m 931 438 b 801 765 931 572 882 686 l 872 857 l 782 922 l 713 832 b 481 892 644 871 567 892 b 32 438 226 892 32 707 b 154 115 32 306 78 194 l 76 15 l 167 -50 l 242 47 b 481 -17 311 6 392 -17 b 931 438 736 -17 931 168 z m 714 438 b 481 168 714 275 624 168 b 361 199 435 168 394 179 l 674 601 b 714 438 699 557 714 501 z m 249 438 b 481 707 249 600 339 707 b 593 679 524 707 561 697 l 283 282 b 249 438 261 324 249 376 z "},"Œ":{"ha":1332,"x_min":0,"x_max":0,"o":"m 1290 174 l 822 174 l 822 358 l 1176 358 l 1176 529 l 822 529 l 822 701 l 1278 701 l 1278 875 l 496 875 b 32 438 210 875 32 711 b 496 0 32 164 210 0 l 1290 0 z m 615 708 l 615 167 l 511 167 b 249 436 344 167 249 267 b 511 708 249 608 344 708 z "},"º":{"ha":590,"x_min":0,"x_max":0,"o":"m 197 638 b 294 771 197 715 228 771 b 392 638 361 771 392 715 b 294 506 392 558 361 506 b 197 638 228 506 197 558 z m 563 638 b 294 897 563 790 454 897 b 28 638 136 897 28 790 b 294 378 28 485 136 378 b 563 638 454 378 563 485 z "},"æ":{"ha":1083,"x_min":0,"x_max":0,"o":"m 331 633 b 56 414 188 633 76 546 l 231 403 b 339 483 243 450 281 483 b 438 383 400 483 438 446 l 438 371 l 338 371 b 31 165 143 371 31 301 b 250 -14 31 64 108 -14 b 493 104 374 -14 451 38 b 743 -17 546 26 626 -17 b 1047 204 904 -17 1015 64 l 885 219 b 750 135 863 161 819 135 b 601 267 681 135 614 172 l 1050 267 l 1050 325 b 739 633 1050 493 943 633 b 531 547 658 633 575 599 b 331 633 488 607 419 633 z m 303 117 b 225 185 251 117 225 146 b 349 267 225 240 264 267 l 438 267 l 438 253 b 303 117 438 167 376 117 z m 738 488 b 857 371 814 488 853 433 l 604 371 b 738 488 621 449 671 488 z "},"ı":{"ha":331,"x_min":0,"x_max":0,"o":"m 65 617 l 65 0 l 265 0 l 265 617 z "},"ł":{"ha":386,"x_min":0,"x_max":0,"o":"m 93 875 l 93 511 l 8 472 l 8 324 l 93 364 l 93 0 l 293 0 l 293 443 l 378 482 l 378 631 l 293 590 l 293 875 z "},"ø":{"ha":726,"x_min":0,"x_max":0,"o":"m 696 308 b 611 533 696 399 664 476 l 672 607 l 600 664 l 539 590 b 363 633 489 618 429 633 b 31 308 165 633 31 499 b 114 82 31 217 61 139 l 54 10 l 126 -47 l 188 25 b 363 -17 236 -1 296 -17 b 696 308 560 -17 696 117 z m 219 308 b 363 482 219 411 268 482 b 433 464 390 482 414 475 l 233 224 b 219 308 224 249 219 276 z m 507 308 b 363 135 507 206 457 135 b 292 151 335 135 311 140 l 493 392 b 507 308 501 368 507 339 z "},"œ":{"ha":1163,"x_min":0,"x_max":0,"o":"m 822 -17 b 1125 203 983 -17 1093 63 l 964 218 b 829 135 942 161 899 135 b 685 264 751 135 690 182 l 1129 264 l 1129 325 b 818 633 1129 493 1022 633 b 594 540 729 633 651 597 b 363 633 536 597 457 633 b 31 308 165 633 31 499 b 363 -17 31 117 165 -17 b 588 72 465 -17 535 19 b 822 -17 646 18 725 -17 z m 233 308 b 363 482 233 411 274 482 b 493 308 450 482 493 411 b 363 135 493 206 450 135 b 233 308 274 135 233 206 z m 688 371 b 817 488 699 436 736 488 b 936 371 893 488 932 432 z "},"ß":{"ha":736,"x_min":0,"x_max":0,"o":"m 664 663 b 378 892 664 803 550 892 b 65 582 185 892 65 771 l 65 0 l 265 0 l 265 575 b 382 747 265 683 300 747 b 476 653 444 747 476 706 b 383 551 476 583 442 551 b 342 553 367 551 356 551 l 342 400 b 394 403 360 401 372 403 b 514 279 468 403 514 360 b 400 151 514 196 468 151 b 338 163 379 151 357 156 l 338 11 b 442 -6 363 3 392 -6 b 700 257 589 -6 700 88 b 553 489 700 389 639 461 b 664 663 624 515 664 575 z "},"¹":{"ha":329,"x_min":0,"x_max":0,"o":"m 13 688 l 117 688 l 117 318 l 274 318 l 274 875 l 150 875 b 13 792 129 817 89 792 z "},"™":{"ha":931,"x_min":0,"x_max":0,"o":"m 257 514 l 257 779 l 378 779 l 378 875 l 28 875 l 28 779 l 146 779 l 146 514 z m 654 514 l 714 746 l 717 746 l 717 514 l 825 514 l 825 875 l 675 875 l 624 650 l 621 650 l 567 875 l 413 875 l 413 514 l 515 514 l 515 746 l 518 746 l 576 514 z "},"Ð":{"ha":933,"x_min":0,"x_max":0,"o":"m 18 358 l 99 358 l 99 0 l 438 0 b 903 438 725 0 903 164 b 438 875 903 711 725 875 l 99 875 l 99 529 l 18 529 z m 310 167 l 310 358 l 504 358 l 504 529 l 310 529 l 310 708 l 424 708 b 685 439 589 708 685 608 b 424 167 685 267 589 167 z "},"½":{"ha":1106,"x_min":0,"x_max":0,"o":"m 25 688 l 129 688 l 129 318 l 285 318 l 285 876 l 163 876 b 25 792 142 818 101 792 z m 826 875 l 688 875 l 153 0 l 293 0 z m 857 131 l 922 179 b 1058 388 1013 249 1058 292 b 844 568 1058 490 979 568 b 626 369 715 568 626 489 b 633 317 626 351 631 335 l 786 313 b 779 358 782 324 779 336 b 839 435 779 400 794 435 b 894 378 879 435 894 410 b 785 232 894 326 869 300 l 631 114 l 631 0 l 1064 0 l 1064 131 z "},"±":{"ha":871,"x_min":0,"x_max":0,"o":"m 351 853 l 351 644 l 85 644 l 85 479 l 351 479 l 351 271 l 518 271 l 518 479 l 786 479 l 786 644 l 518 644 l 518 853 z m 85 29 l 786 29 l 786 194 l 85 194 z "},"Þ":{"ha":810,"x_min":0,"x_max":0,"o":"m 281 326 l 281 578 l 429 578 b 593 451 544 578 593 533 b 429 326 593 369 544 326 z m 281 157 l 439 157 b 796 453 665 157 796 264 b 439 747 796 642 665 747 l 281 747 l 281 875 l 71 875 l 71 0 l 281 0 z "},"¼":{"ha":1078,"x_min":0,"x_max":0,"o":"m 25 688 l 129 688 l 129 318 l 285 318 l 285 876 l 163 876 b 25 792 142 818 101 792 z m 979 557 l 790 557 l 556 246 l 556 115 l 825 115 l 825 0 l 979 0 l 979 115 l 1049 115 l 1049 235 l 979 235 z m 825 419 l 825 235 l 689 235 z m 826 875 l 688 875 l 153 0 l 293 0 z "},"÷":{"ha":851,"x_min":0,"x_max":0,"o":"m 63 347 l 790 347 l 790 515 l 63 515 z m 317 622 l 536 622 l 536 829 l 317 829 z m 317 33 l 536 33 l 536 240 l 317 240 z "},"°":{"ha":504,"x_min":0,"x_max":0,"o":"m 163 689 b 253 779 163 739 197 779 b 342 689 308 779 342 739 b 253 597 342 638 308 597 b 163 689 197 597 163 638 z m 42 689 b 253 485 42 574 133 485 b 463 689 372 485 463 574 b 253 892 463 803 372 892 b 42 689 133 892 42 803 z "},"þ":{"ha":779,"x_min":0,"x_max":0,"o":"m 265 315 b 406 476 265 414 322 476 b 546 308 500 476 546 408 b 406 139 546 207 500 139 b 265 301 322 139 265 201 z m 265 110 b 474 -17 296 38 367 -17 b 749 308 654 -17 749 126 b 474 633 749 489 654 633 b 265 506 367 633 296 579 l 265 875 l 65 875 l 65 -225 l 265 -225 z "},"¾":{"ha":1203,"x_min":0,"x_max":0,"o":"m 1103 557 l 915 557 l 679 246 l 679 115 l 950 115 l 950 0 l 1103 0 l 1103 115 l 1172 115 l 1172 235 l 1103 235 z m 950 419 l 950 235 l 814 235 z m 313 483 b 253 435 313 450 285 435 b 175 506 207 435 176 456 l 21 511 b 253 307 21 386 107 307 b 472 471 383 307 472 365 b 360 600 472 539 433 588 b 458 718 411 607 458 651 b 250 886 458 818 382 886 b 28 678 110 886 28 793 l 176 672 b 246 758 176 721 200 758 b 303 703 285 758 303 738 b 244 647 303 665 275 647 b 203 649 232 647 213 647 l 203 538 b 243 539 218 540 233 539 b 313 483 283 539 313 521 z m 951 875 l 811 875 l 278 0 l 417 0 z "},"²":{"ha":475,"x_min":0,"x_max":0,"o":"m 253 449 l 318 497 b 454 706 408 567 454 610 b 240 886 454 808 376 886 b 22 688 111 886 22 807 b 29 636 22 669 26 653 l 182 631 b 176 676 179 642 176 654 b 236 753 176 718 192 753 b 292 696 276 753 292 728 b 182 551 292 644 267 618 l 28 432 l 28 318 l 460 318 l 460 449 z "},"®":{"ha":569,"x_min":0,"x_max":0,"o":"m 418 497 b 404 560 408 508 407 519 b 356 613 401 592 385 607 b 414 683 389 618 414 644 b 310 769 414 738 379 769 l 174 769 l 174 497 l 250 497 l 250 583 l 286 583 b 328 546 313 583 326 576 b 340 497 331 515 333 506 z m 250 643 l 250 708 l 288 708 b 335 675 319 708 335 699 b 288 643 335 653 319 643 z m 540 633 b 285 892 540 783 425 892 b 29 633 144 892 29 783 b 285 375 29 483 144 375 b 540 633 425 375 540 483 z m 493 633 b 285 419 493 508 401 419 b 76 633 168 419 76 508 b 285 847 76 758 168 847 b 493 633 401 847 493 758 z "},"−":{"ha":851,"x_min":0,"x_max":0,"o":"m 63 347 l 790 347 l 790 515 l 63 515 z "},"ð":{"ha":722,"x_min":0,"x_max":0,"o":"m 154 613 l 351 675 b 485 525 417 621 467 567 b 329 590 446 568 390 590 b 31 296 174 590 31 489 b 363 -17 31 100 165 -17 b 692 329 560 -17 692 111 b 526 731 692 481 632 618 l 607 757 l 574 844 l 446 803 b 310 892 406 835 360 865 l 136 825 b 261 744 178 800 221 772 l 122 700 z m 363 139 b 233 294 281 139 233 206 b 363 451 233 385 281 451 b 493 294 444 451 493 385 b 363 139 493 206 444 139 z "},"×":{"ha":736,"x_min":0,"x_max":0,"o":"m 254 429 l 51 226 l 167 114 l 368 315 l 571 114 l 685 226 l 482 429 l 685 631 l 571 746 l 368 542 l 167 746 l 51 631 z "},"©":{"ha":1006,"x_min":0,"x_max":0,"o":"m 49 438 b 503 -17 49 174 253 -17 b 957 438 753 -17 957 174 b 503 892 957 701 753 892 b 49 438 253 892 49 701 z m 231 438 b 506 158 231 271 349 158 b 767 396 668 158 756 260 l 636 403 b 508 285 628 340 592 285 b 378 438 426 285 378 346 b 508 592 378 532 426 592 b 636 475 592 592 628 536 l 767 479 b 506 718 756 615 668 718 b 231 438 349 718 231 604 z m 117 438 b 503 826 117 663 290 826 b 889 438 715 826 889 663 b 503 49 889 213 715 49 b 117 438 290 49 117 213 z "},"Á":{"ha":944,"x_min":0,"x_max":0,"o":"m 354 875 l 4 0 l 215 0 l 289 189 l 642 189 l 717 0 l 942 0 l 589 875 z m 463 635 l 468 635 l 581 347 l 350 347 z m 536 931 l 671 1122 l 467 1122 l 392 931 z "},"Â":{"ha":944,"x_min":0,"x_max":0,"o":"m 354 875 l 4 0 l 215 0 l 289 189 l 642 189 l 717 0 l 942 0 l 589 875 z m 368 1122 l 250 931 l 379 931 l 465 1013 l 551 931 l 681 931 l 563 1122 z m 463 635 l 468 635 l 581 347 l 350 347 z "},"Ä":{"ha":944,"x_min":0,"x_max":0,"o":"m 354 875 l 4 0 l 215 0 l 289 189 l 642 189 l 717 0 l 942 0 l 589 875 z m 463 635 l 468 635 l 581 347 l 350 347 z m 254 932 l 433 932 l 433 1114 l 254 1114 z m 500 932 l 679 932 l 679 1114 l 500 1114 z "},"À":{"ha":944,"x_min":0,"x_max":0,"o":"m 354 875 l 4 0 l 215 0 l 289 189 l 642 189 l 717 0 l 942 0 l 589 875 z m 463 635 l 468 635 l 581 347 l 350 347 z m 542 931 l 467 1122 l 263 1122 l 397 931 z "},"Å":{"ha":944,"x_min":0,"x_max":0,"o":"m 354 875 l 4 0 l 215 0 l 289 189 l 642 189 l 717 0 l 942 0 l 589 875 z m 332 1047 b 465 919 332 974 385 919 b 599 1047 546 919 599 974 b 465 1175 599 1121 546 1175 b 332 1047 385 1175 332 1121 z m 463 635 l 468 635 l 581 347 l 350 347 z m 415 1047 b 465 1097 415 1076 432 1097 b 515 1047 499 1097 515 1076 b 465 997 515 1018 499 997 b 415 1047 432 997 415 1018 z "},"Ã":{"ha":944,"x_min":0,"x_max":0,"o":"m 354 875 l 4 0 l 215 0 l 289 189 l 642 189 l 717 0 l 942 0 l 589 875 z m 356 931 b 401 983 358 969 376 983 b 554 926 450 983 488 926 b 678 1119 635 926 678 1006 l 581 1119 b 535 1065 578 1081 560 1065 b 382 1124 486 1065 447 1124 b 258 931 300 1124 258 1044 z m 463 635 l 468 635 l 581 347 l 350 347 z "},"Ç":{"ha":928,"x_min":0,"x_max":0,"o":"m 650 -142 b 490 -53 650 -65 572 -36 l 519 -14 b 899 369 756 3 883 163 l 697 378 b 475 169 685 267 621 169 b 249 438 335 169 249 274 b 475 706 249 601 335 706 b 697 497 621 706 685 608 l 899 506 b 476 892 883 725 740 892 b 32 438 224 892 32 707 b 453 -17 32 176 211 -6 l 389 -108 l 429 -124 b 529 -146 468 -107 529 -104 b 471 -178 529 -169 507 -178 b 353 -144 424 -178 383 -162 l 329 -196 b 486 -243 360 -221 418 -243 b 650 -142 569 -243 650 -217 z "},"É":{"ha":788,"x_min":0,"x_max":0,"o":"m 485 931 l 619 1122 l 415 1122 l 340 931 z m 746 174 l 278 174 l 278 358 l 632 358 l 632 529 l 278 529 l 278 701 l 733 701 l 733 875 l 71 875 l 71 0 l 746 0 z "},"Ê":{"ha":788,"x_min":0,"x_max":0,"o":"m 746 174 l 278 174 l 278 358 l 632 358 l 632 529 l 278 529 l 278 701 l 733 701 l 733 875 l 71 875 l 71 0 l 746 0 z m 318 1122 l 200 931 l 329 931 l 415 1013 l 501 931 l 631 931 l 513 1122 z "},"Ë":{"ha":788,"x_min":0,"x_max":0,"o":"m 203 932 l 382 932 l 382 1114 l 203 1114 z m 449 932 l 628 932 l 628 1114 l 449 1114 z m 746 174 l 278 174 l 278 358 l 632 358 l 632 529 l 278 529 l 278 701 l 733 701 l 733 875 l 71 875 l 71 0 l 746 0 z "},"È":{"ha":788,"x_min":0,"x_max":0,"o":"m 490 931 l 415 1122 l 211 1122 l 346 931 z m 746 174 l 278 174 l 278 358 l 632 358 l 632 529 l 278 529 l 278 701 l 733 701 l 733 875 l 71 875 l 71 0 l 746 0 z "},"Í":{"ha":353,"x_min":0,"x_max":0,"o":"m 71 875 l 71 0 l 282 0 l 282 875 z m 246 931 l 381 1122 l 176 1122 l 101 931 z "},"Î":{"ha":353,"x_min":0,"x_max":0,"o":"m 71 875 l 71 0 l 282 0 l 282 875 z m 79 1122 l -39 931 l 90 931 l 176 1013 l 263 931 l 392 931 l 274 1122 z "},"Ï":{"ha":353,"x_min":0,"x_max":0,"o":"m 71 875 l 71 0 l 282 0 l 282 875 z m -36 932 l 143 932 l 143 1114 l -36 1114 z m 210 932 l 389 932 l 389 1114 l 210 1114 z "},"Ì":{"ha":353,"x_min":0,"x_max":0,"o":"m 71 875 l 71 0 l 282 0 l 282 875 z m 251 931 l 176 1122 l -28 1122 l 107 931 z "},"Ñ":{"ha":910,"x_min":0,"x_max":0,"o":"m 356 931 b 401 983 358 969 376 983 b 554 926 450 983 488 926 b 678 1119 635 926 678 1006 l 581 1119 b 535 1065 578 1081 560 1065 b 382 1124 486 1065 447 1124 b 258 931 300 1124 258 1044 z m 274 875 l 71 875 l 71 0 l 265 0 l 265 558 l 671 0 l 839 0 l 839 875 l 646 875 l 646 350 z "},"Ó":{"ha":963,"x_min":0,"x_max":0,"o":"m 551 931 l 686 1122 l 482 1122 l 407 931 z m 931 438 b 481 892 931 707 736 892 b 32 438 226 892 32 707 b 481 -17 32 168 226 -17 b 931 438 736 -17 931 168 z m 714 438 b 481 168 714 275 624 168 b 249 438 339 168 249 275 b 481 707 249 600 339 707 b 714 438 624 707 714 600 z "},"Ô":{"ha":963,"x_min":0,"x_max":0,"o":"m 931 438 b 481 892 931 707 736 892 b 32 438 226 892 32 707 b 481 -17 32 168 226 -17 b 931 438 736 -17 931 168 z m 714 438 b 481 168 714 275 624 168 b 249 438 339 168 249 275 b 481 707 249 600 339 707 b 714 438 624 707 714 600 z m 383 1122 l 265 931 l 394 931 l 481 1013 l 567 931 l 696 931 l 578 1122 z "},"Ö":{"ha":963,"x_min":0,"x_max":0,"o":"m 269 932 l 449 932 l 449 1114 l 269 1114 z m 515 932 l 694 932 l 694 1114 l 515 1114 z m 931 438 b 481 892 931 707 736 892 b 32 438 226 892 32 707 b 481 -17 32 168 226 -17 b 931 438 736 -17 931 168 z m 714 438 b 481 168 714 275 624 168 b 249 438 339 168 249 275 b 481 707 249 600 339 707 b 714 438 624 707 714 600 z "},"Ò":{"ha":963,"x_min":0,"x_max":0,"o":"m 557 931 l 482 1122 l 278 1122 l 413 931 z m 931 438 b 481 892 931 707 736 892 b 32 438 226 892 32 707 b 481 -17 32 168 226 -17 b 931 438 736 -17 931 168 z m 714 438 b 481 168 714 275 624 168 b 249 438 339 168 249 275 b 481 707 249 600 339 707 b 714 438 624 707 714 600 z "},"Õ":{"ha":963,"x_min":0,"x_max":0,"o":"m 369 931 b 415 983 372 969 390 983 b 568 926 464 983 501 926 b 692 1119 649 926 692 1006 l 594 1119 b 549 1065 592 1081 574 1065 b 396 1124 500 1065 461 1124 b 272 931 314 1124 272 1044 z m 931 438 b 481 892 931 707 736 892 b 32 438 226 892 32 707 b 481 -17 32 168 226 -17 b 931 438 736 -17 931 168 z m 714 438 b 481 168 714 275 624 168 b 249 438 339 168 249 275 b 481 707 249 600 339 707 b 714 438 624 707 714 600 z "},"Š":{"ha":828,"x_min":0,"x_max":0,"o":"m 28 311 b 428 -17 28 99 194 -17 b 785 257 628 -17 785 76 b 524 521 785 400 703 489 l 360 550 b 257 631 296 563 257 581 b 396 726 257 690 307 726 b 574 574 497 726 568 676 l 768 579 b 397 892 764 774 635 892 b 50 613 185 892 50 785 b 288 360 50 464 149 386 l 451 331 b 579 243 528 315 579 301 b 428 149 579 185 521 149 b 221 318 319 149 229 197 z m 513 931 l 631 1122 l 501 1122 l 415 1040 l 329 1122 l 200 1122 l 318 931 z "},"Ú":{"ha":903,"x_min":0,"x_max":0,"o":"m 522 931 l 657 1122 l 453 1122 l 378 931 z m 451 -17 b 840 344 671 -17 840 89 l 840 875 l 631 875 l 631 374 b 451 161 631 235 581 161 b 274 375 324 161 274 235 l 274 875 l 64 875 l 64 344 b 451 -17 64 89 233 -17 z "},"Û":{"ha":903,"x_min":0,"x_max":0,"o":"m 451 -17 b 840 344 671 -17 840 89 l 840 875 l 631 875 l 631 374 b 451 161 631 235 581 161 b 274 375 324 161 274 235 l 274 875 l 64 875 l 64 344 b 451 -17 64 89 233 -17 z m 354 1122 l 236 931 l 365 931 l 451 1013 l 538 931 l 667 931 l 549 1122 z "},"Ü":{"ha":903,"x_min":0,"x_max":0,"o":"m 239 932 l 418 932 l 418 1114 l 239 1114 z m 485 932 l 664 932 l 664 1114 l 485 1114 z m 451 -17 b 840 344 671 -17 840 89 l 840 875 l 631 875 l 631 374 b 451 161 631 235 581 161 b 274 375 324 161 274 235 l 274 875 l 64 875 l 64 344 b 451 -17 64 89 233 -17 z "},"Ù":{"ha":903,"x_min":0,"x_max":0,"o":"m 528 931 l 453 1122 l 249 1122 l 383 931 z m 451 -17 b 840 344 671 -17 840 89 l 840 875 l 631 875 l 631 374 b 451 161 631 235 581 161 b 274 375 324 161 274 235 l 274 875 l 64 875 l 64 344 b 451 -17 64 89 233 -17 z "},"Ý":{"ha":886,"x_min":0,"x_max":0,"o":"m 451 538 l 238 875 l 4 875 l 340 335 l 340 0 l 544 0 l 544 335 l 882 875 l 656 875 z m 513 931 l 647 1122 l 443 1122 l 368 931 z "},"Ÿ":{"ha":886,"x_min":0,"x_max":0,"o":"m 451 538 l 238 875 l 4 875 l 340 335 l 340 0 l 544 0 l 544 335 l 882 875 l 656 875 z m 231 932 l 410 932 l 410 1114 l 231 1114 z m 476 932 l 656 932 l 656 1114 l 476 1114 z "},"Ž":{"ha":815,"x_min":0,"x_max":0,"o":"m 507 931 l 625 1122 l 496 1122 l 410 1040 l 324 1122 l 194 1122 l 313 931 z m 307 174 l 761 713 l 761 875 l 46 875 l 46 701 l 493 701 l 42 158 l 42 0 l 774 0 l 774 174 z "},"á":{"ha":721,"x_min":0,"x_max":0,"o":"m 428 261 b 296 118 428 174 369 118 b 225 176 253 118 225 140 b 326 253 225 225 264 240 l 428 274 z m 625 393 b 349 633 625 561 510 633 b 53 410 172 633 74 542 l 239 396 b 338 483 250 447 279 483 b 428 390 399 483 428 449 l 428 379 l 256 349 b 31 154 119 322 31 272 b 232 -14 31 49 108 -14 b 439 94 328 -14 404 24 b 585 -14 457 25 511 -14 b 715 26 646 -14 685 4 l 715 133 b 664 122 697 125 682 122 b 625 168 639 122 625 136 z m 424 682 l 558 875 l 354 875 l 279 682 z "},"â":{"ha":721,"x_min":0,"x_max":0,"o":"m 428 261 b 296 118 428 174 369 118 b 225 176 253 118 225 140 b 326 253 225 225 264 240 l 428 274 z m 625 393 b 349 633 625 561 510 633 b 53 410 172 633 74 542 l 239 396 b 338 483 250 447 279 483 b 428 390 399 483 428 449 l 428 379 l 256 349 b 31 154 119 322 31 272 b 232 -14 31 49 108 -14 b 439 94 328 -14 404 24 b 585 -14 457 25 511 -14 b 715 26 646 -14 685 4 l 715 133 b 664 122 697 125 682 122 b 625 168 639 122 625 136 z m 257 875 l 139 682 l 268 682 l 354 765 l 440 682 l 569 682 l 451 875 z "},"ä":{"ha":721,"x_min":0,"x_max":0,"o":"m 428 261 b 296 118 428 174 369 118 b 225 176 253 118 225 140 b 326 253 225 225 264 240 l 428 274 z m 625 393 b 349 633 625 561 510 633 b 53 410 172 633 74 542 l 239 396 b 338 483 250 447 279 483 b 428 390 399 483 428 449 l 428 379 l 256 349 b 31 154 119 322 31 272 b 232 -14 31 49 108 -14 b 439 94 328 -14 404 24 b 585 -14 457 25 511 -14 b 715 26 646 -14 685 4 l 715 133 b 664 122 697 125 682 122 b 625 168 639 122 625 136 z m 142 690 l 321 690 l 321 872 l 142 872 z m 388 690 l 567 690 l 567 872 l 388 872 z "},"à":{"ha":721,"x_min":0,"x_max":0,"o":"m 428 261 b 296 118 428 174 369 118 b 225 176 253 118 225 140 b 326 253 225 225 264 240 l 428 274 z m 625 393 b 349 633 625 561 510 633 b 53 410 172 633 74 542 l 239 396 b 338 483 250 447 279 483 b 428 390 399 483 428 449 l 428 379 l 256 349 b 31 154 119 322 31 272 b 232 -14 31 49 108 -14 b 439 94 328 -14 404 24 b 585 -14 457 25 511 -14 b 715 26 646 -14 685 4 l 715 133 b 664 122 697 125 682 122 b 625 168 639 122 625 136 z m 429 682 l 354 875 l 150 875 l 285 682 z "},"å":{"ha":721,"x_min":0,"x_max":0,"o":"m 428 261 b 296 118 428 174 369 118 b 225 176 253 118 225 140 b 326 253 225 225 264 240 l 428 274 z m 625 393 b 349 633 625 561 510 633 b 53 410 172 633 74 542 l 239 396 b 338 483 250 447 279 483 b 428 390 399 483 428 449 l 428 379 l 256 349 b 31 154 119 322 31 272 b 232 -14 31 49 108 -14 b 439 94 328 -14 404 24 b 585 -14 457 25 511 -14 b 715 26 646 -14 685 4 l 715 133 b 664 122 697 125 682 122 b 625 168 639 122 625 136 z m 304 800 b 354 850 304 829 321 850 b 404 800 388 850 404 829 b 354 750 404 771 388 750 b 304 800 321 750 304 771 z m 221 800 b 354 672 221 726 274 672 b 488 800 435 672 488 726 b 354 928 488 872 435 928 b 221 800 274 928 221 872 z "},"ã":{"ha":721,"x_min":0,"x_max":0,"o":"m 428 261 b 296 118 428 174 369 118 b 225 176 253 118 225 140 b 326 253 225 225 264 240 l 428 274 z m 625 393 b 349 633 625 561 510 633 b 53 410 172 633 74 542 l 239 396 b 338 483 250 447 279 483 b 428 390 399 483 428 449 l 428 379 l 256 349 b 31 154 119 322 31 272 b 232 -14 31 49 108 -14 b 439 94 328 -14 404 24 b 585 -14 457 25 511 -14 b 715 26 646 -14 685 4 l 715 133 b 664 122 697 125 682 122 b 625 168 639 122 625 136 z m 244 683 b 290 738 247 722 265 738 b 443 679 339 738 376 679 b 567 872 524 679 567 758 l 469 872 b 424 819 467 833 449 819 b 271 876 375 819 336 876 b 147 683 189 876 147 797 z "},"ç":{"ha":693,"x_min":0,"x_max":0,"o":"m 519 -142 b 360 -53 519 -65 442 -36 l 389 -15 b 665 251 557 -6 650 110 l 499 265 b 365 136 485 182 440 136 b 233 308 288 136 233 190 b 365 481 233 426 288 481 b 499 353 440 481 485 436 l 665 365 b 364 633 650 513 547 633 b 31 308 171 633 31 503 b 324 -14 31 126 151 1 l 258 -108 l 299 -124 b 399 -146 338 -107 399 -104 b 340 -178 399 -169 376 -178 b 222 -144 293 -178 253 -162 l 199 -196 b 356 -243 229 -221 288 -243 b 519 -142 439 -243 519 -217 z "},"é":{"ha":706,"x_min":0,"x_max":0,"o":"m 433 682 l 568 875 l 364 875 l 289 682 z m 507 218 b 372 135 485 161 442 135 b 228 264 294 135 233 182 l 672 264 l 672 325 b 361 633 672 493 565 633 b 31 299 172 633 31 493 b 365 -17 31 103 169 -17 b 668 203 526 -17 636 63 z m 231 371 b 360 488 242 436 279 488 b 479 371 436 488 475 432 z "},"ê":{"ha":706,"x_min":0,"x_max":0,"o":"m 267 875 l 149 682 l 278 682 l 364 765 l 450 682 l 579 682 l 461 875 z m 507 218 b 372 135 485 161 442 135 b 228 264 294 135 233 182 l 672 264 l 672 325 b 361 633 672 493 565 633 b 31 299 172 633 31 493 b 365 -17 31 103 169 -17 b 668 203 526 -17 636 63 z m 231 371 b 360 488 242 436 279 488 b 479 371 436 488 475 432 z "},"ë":{"ha":706,"x_min":0,"x_max":0,"o":"m 151 690 l 331 690 l 331 872 l 151 872 z m 397 690 l 576 690 l 576 872 l 397 872 z m 507 218 b 372 135 485 161 442 135 b 228 264 294 135 233 182 l 672 264 l 672 325 b 361 633 672 493 565 633 b 31 299 172 633 31 493 b 365 -17 31 103 169 -17 b 668 203 526 -17 636 63 z m 231 371 b 360 488 242 436 279 488 b 479 371 436 488 475 432 z "},"è":{"ha":706,"x_min":0,"x_max":0,"o":"m 507 218 b 372 135 485 161 442 135 b 228 264 294 135 233 182 l 672 264 l 672 325 b 361 633 672 493 565 633 b 31 299 172 633 31 493 b 365 -17 31 103 169 -17 b 668 203 526 -17 636 63 z m 231 371 b 360 488 242 436 279 488 b 479 371 436 488 475 432 z m 440 682 l 365 875 l 161 875 l 296 682 z "},"í":{"ha":331,"x_min":0,"x_max":0,"o":"m 236 682 l 371 875 l 167 875 l 92 682 z m 65 617 l 65 0 l 265 0 l 265 617 z "},"î":{"ha":331,"x_min":0,"x_max":0,"o":"m 68 875 l -50 682 l 79 682 l 165 765 l 251 682 l 381 682 l 263 875 z m 65 617 l 65 0 l 265 0 l 265 617 z "},"ï":{"ha":331,"x_min":0,"x_max":0,"o":"m -47 690 l 132 690 l 132 872 l -47 872 z m 199 690 l 378 690 l 378 872 l 199 872 z m 65 617 l 65 0 l 265 0 l 265 617 z "},"ì":{"ha":331,"x_min":0,"x_max":0,"o":"m 65 617 l 65 0 l 265 0 l 265 617 z m 240 682 l 165 875 l -39 875 l 96 682 z "},"ñ":{"ha":747,"x_min":0,"x_max":0,"o":"m 265 314 b 386 475 265 411 306 475 b 489 338 460 475 489 426 l 489 0 l 689 0 l 689 386 b 467 633 689 518 633 633 b 265 521 374 633 299 589 l 265 617 l 65 617 l 65 0 l 265 0 z m 275 683 b 321 738 278 722 296 738 b 474 679 369 738 407 679 b 597 872 554 679 597 758 l 500 872 b 454 819 497 833 479 819 b 301 876 406 819 367 876 b 178 683 219 876 178 797 z "},"ó":{"ha":726,"x_min":0,"x_max":0,"o":"m 433 682 l 568 875 l 364 875 l 289 682 z m 233 308 b 363 482 233 411 274 482 b 493 308 450 482 493 411 b 363 135 493 206 450 135 b 233 308 274 135 233 206 z m 696 308 b 363 633 696 499 560 633 b 31 308 165 633 31 499 b 363 -17 31 117 165 -17 b 696 308 560 -17 696 117 z "},"ô":{"ha":726,"x_min":0,"x_max":0,"o":"m 265 875 l 147 682 l 276 682 l 363 765 l 449 682 l 578 682 l 460 875 z m 233 308 b 363 482 233 411 274 482 b 493 308 450 482 493 411 b 363 135 493 206 450 135 b 233 308 274 135 233 206 z m 696 308 b 363 633 696 499 560 633 b 31 308 165 633 31 499 b 363 -17 31 117 165 -17 b 696 308 560 -17 696 117 z "},"ö":{"ha":726,"x_min":0,"x_max":0,"o":"m 150 690 l 329 690 l 329 872 l 150 872 z m 396 690 l 575 690 l 575 872 l 396 872 z m 233 308 b 363 482 233 411 274 482 b 493 308 450 482 493 411 b 363 135 493 206 450 135 b 233 308 274 135 233 206 z m 696 308 b 363 633 696 499 560 633 b 31 308 165 633 31 499 b 363 -17 31 117 165 -17 b 696 308 560 -17 696 117 z "},"ò":{"ha":726,"x_min":0,"x_max":0,"o":"m 233 308 b 363 482 233 411 274 482 b 493 308 450 482 493 411 b 363 135 493 206 450 135 b 233 308 274 135 233 206 z m 696 308 b 363 633 696 499 560 633 b 31 308 165 633 31 499 b 363 -17 31 117 165 -17 b 696 308 560 -17 696 117 z m 439 682 l 364 875 l 160 875 l 294 682 z "},"õ":{"ha":726,"x_min":0,"x_max":0,"o":"m 233 308 b 363 482 233 411 274 482 b 493 308 450 482 493 411 b 363 135 493 206 450 135 b 233 308 274 135 233 206 z m 696 308 b 363 633 696 499 560 633 b 31 308 165 633 31 499 b 363 -17 31 117 165 -17 b 696 308 560 -17 696 117 z m 254 683 b 300 738 257 722 275 738 b 453 679 349 738 386 679 b 576 872 533 679 576 758 l 479 872 b 433 819 476 833 458 819 b 281 876 385 819 346 876 b 157 683 199 876 157 797 z "},"š":{"ha":632,"x_min":0,"x_max":0,"o":"m 415 682 l 533 875 l 404 875 l 318 793 l 232 875 l 103 875 l 221 682 z m 21 201 b 325 -17 32 51 158 -17 b 603 185 493 -17 603 56 b 390 383 603 303 525 363 l 271 404 b 221 449 240 408 221 424 b 301 503 221 482 251 503 b 431 418 378 503 421 472 l 596 424 b 304 633 583 556 479 633 b 35 429 139 633 35 549 b 253 236 35 307 111 258 l 347 221 b 417 165 397 213 417 196 b 326 113 417 132 381 113 b 196 206 251 113 204 146 z "},"ú":{"ha":739,"x_min":0,"x_max":0,"o":"m 438 682 l 572 875 l 368 875 l 293 682 z m 474 303 b 361 142 474 204 436 142 b 258 278 288 142 258 190 l 258 617 l 58 617 l 58 229 b 278 -17 58 97 111 -17 b 474 96 371 -17 440 26 l 474 0 l 675 0 l 675 617 l 474 617 z "},"û":{"ha":739,"x_min":0,"x_max":0,"o":"m 269 875 l 151 682 l 281 682 l 367 765 l 453 682 l 582 682 l 464 875 z m 474 303 b 361 142 474 204 436 142 b 258 278 288 142 258 190 l 258 617 l 58 617 l 58 229 b 278 -17 58 97 111 -17 b 474 96 371 -17 440 26 l 474 0 l 675 0 l 675 617 l 474 617 z "},"ü":{"ha":739,"x_min":0,"x_max":0,"o":"m 154 690 l 333 690 l 333 872 l 154 872 z m 400 690 l 579 690 l 579 872 l 400 872 z m 474 303 b 361 142 474 204 436 142 b 258 278 288 142 258 190 l 258 617 l 58 617 l 58 229 b 278 -17 58 97 111 -17 b 474 96 371 -17 440 26 l 474 0 l 675 0 l 675 617 l 474 617 z "},"ù":{"ha":739,"x_min":0,"x_max":0,"o":"m 474 303 b 361 142 474 204 436 142 b 258 278 288 142 258 190 l 258 617 l 58 617 l 58 229 b 278 -17 58 97 111 -17 b 474 96 371 -17 440 26 l 474 0 l 675 0 l 675 617 l 474 617 z m 442 682 l 367 875 l 163 875 l 297 682 z "},"ý":{"ha":714,"x_min":0,"x_max":0,"o":"m 360 -225 l 714 617 l 517 617 l 365 232 l 360 232 l 211 617 l 0 617 l 253 -6 l 163 -225 z m 426 682 l 561 875 l 357 875 l 282 682 z "},"ÿ":{"ha":714,"x_min":0,"x_max":0,"o":"m 360 -225 l 714 617 l 517 617 l 365 232 l 360 232 l 211 617 l 0 617 l 253 -6 l 163 -225 z m 144 690 l 324 690 l 324 872 l 144 872 z m 390 690 l 569 690 l 569 872 l 390 872 z "},"ž":{"ha":621,"x_min":0,"x_max":0,"o":"m 408 682 l 526 875 l 397 875 l 311 793 l 225 875 l 96 875 l 214 682 z m 331 471 l 38 138 l 38 0 l 583 0 l 583 146 l 279 146 l 576 481 l 576 617 l 44 617 l 44 471 z "},"€":{"ha":882,"x_min":0,"x_max":0,"o":"m 21 294 l 104 294 b 485 -17 147 99 282 -17 b 846 356 706 -17 839 142 l 653 364 b 485 164 649 242 593 164 b 315 294 396 164 342 210 l 485 294 l 499 399 l 299 399 l 299 472 l 508 472 l 522 575 l 314 575 b 485 711 339 663 393 711 b 653 511 593 711 649 619 l 846 519 b 485 892 836 729 711 892 b 103 575 279 892 144 774 l 21 575 l 21 472 l 90 472 l 90 438 b 92 399 90 424 90 411 l 21 399 z "},"≈":{"ha":879,"x_min":0,"x_max":0,"o":"m 76 456 b 272 521 147 501 213 521 b 604 457 396 521 479 457 b 804 522 664 457 731 475 l 804 678 b 604 613 731 629 664 613 b 272 675 479 613 396 675 b 76 610 213 675 147 656 z m 76 192 b 272 257 147 238 213 257 b 604 193 396 257 479 193 b 804 258 664 193 731 211 l 804 414 b 604 349 731 365 664 349 b 272 413 479 349 396 413 b 76 347 213 413 147 393 z "},"≠":{"ha":879,"x_min":0,"x_max":0,"o":"m 76 501 l 413 501 l 324 367 l 76 367 l 76 218 l 226 218 l 121 57 l 264 57 l 369 218 l 804 218 l 804 367 l 467 367 l 556 501 l 804 501 l 804 650 l 653 650 l 760 813 l 617 813 l 510 650 l 76 650 z "},"≤":{"ha":668,"x_min":0,"x_max":0,"o":"m 57 29 l 611 29 l 611 196 l 57 196 z m 57 432 l 611 233 l 611 417 l 225 542 l 611 665 l 611 849 l 57 650 z "},"≥":{"ha":668,"x_min":0,"x_max":0,"o":"m 611 196 l 57 196 l 57 29 l 611 29 z m 611 650 l 57 849 l 57 665 l 442 542 l 57 417 l 57 233 l 611 432 z "},"³":{"ha":493,"x_min":0,"x_max":0,"o":"m 311 483 b 251 435 311 450 283 435 b 174 506 206 435 175 456 l 19 510 b 251 307 19 386 106 307 b 472 471 383 307 472 365 b 358 600 472 539 432 588 b 457 718 410 607 457 651 b 249 886 457 818 381 886 b 26 678 108 886 26 793 l 176 672 b 244 758 176 721 199 758 b 301 701 283 758 301 738 b 243 646 301 665 274 646 b 201 647 231 646 211 646 l 201 538 b 242 539 217 539 232 539 b 311 483 282 539 311 521 z "},"Ţ":{"ha":889,"x_min":0,"x_max":0,"o":"m 354 -181 l 425 -181 b 354 -226 424 -217 403 -226 l 354 -296 b 535 -149 475 -296 535 -250 l 535 -53 l 354 -53 z m 547 0 l 547 701 l 856 701 l 856 875 l 33 875 l 33 701 l 338 701 l 338 0 z "},"ţ":{"ha":482,"x_min":0,"x_max":0,"o":"m 186 -181 l 257 -181 b 186 -226 256 -217 235 -226 l 186 -296 b 367 -149 307 -296 367 -250 l 367 -53 l 186 -53 z m 88 165 b 278 -17 88 26 178 -17 b 457 38 358 -17 411 3 l 457 169 b 357 144 419 153 388 144 b 285 219 310 144 285 167 l 285 476 l 449 476 l 449 617 l 285 617 l 285 788 l 161 788 l 140 706 b 46 606 125 649 107 617 l 1 599 l 1 476 l 88 476 z "},"ȷ":{"ha":331,"x_min":0,"x_max":0,"o":"m 265 617 l 65 617 l 65 -28 b 6 -101 65 -79 44 -101 b -86 -75 -25 -101 -54 -94 l -119 -197 b 50 -242 -81 -225 -17 -242 b 265 -35 185 -242 265 -178 z "},"℗":{"ha":1006,"x_min":0,"x_max":0,"o":"m 49 438 b 503 -17 49 174 253 -17 b 957 438 753 -17 957 174 b 503 892 957 701 753 892 b 49 438 253 892 49 701 z m 117 438 b 503 826 117 663 290 826 b 889 438 715 826 889 663 b 503 49 889 213 715 49 b 117 438 290 49 117 213 z m 450 450 l 450 588 l 528 588 b 624 518 596 588 624 564 b 528 450 624 475 596 450 z m 450 340 l 543 340 b 758 521 681 340 758 407 b 543 697 758 632 681 697 l 317 697 l 317 171 l 450 171 z "},"ﬀ":{"ha":839,"x_min":0,"x_max":0,"o":"m 488 476 l 488 0 l 686 0 l 686 476 l 846 476 l 846 617 l 686 617 l 686 668 b 747 747 686 714 704 747 b 817 696 782 747 803 728 l 942 735 b 726 892 915 836 840 892 b 488 639 582 892 488 799 l 488 617 l 289 617 l 289 657 b 354 732 289 703 308 732 b 431 708 382 732 410 721 l 471 833 b 308 878 429 858 386 878 b 90 650 169 878 90 794 l 90 617 l 0 617 l 0 476 l 90 476 l 90 0 l 289 0 l 289 476 z "},"ﬃ":{"ha":1151,"x_min":0,"x_max":0,"o":"m 488 476 l 488 0 l 686 0 l 686 476 l 886 476 l 886 0 l 1088 0 l 1088 617 l 686 617 l 686 636 b 785 746 686 707 725 746 b 878 688 836 746 863 721 l 1026 736 b 772 892 985 836 910 892 b 488 633 603 892 488 796 l 488 617 l 289 617 l 289 657 b 354 732 289 703 308 732 b 431 708 382 732 410 721 l 471 833 b 308 878 429 858 386 878 b 90 650 169 878 90 794 l 90 617 l 0 617 l 0 476 l 90 476 l 90 0 l 289 0 l 289 476 z "},"ﬄ":{"ha":1151,"x_min":0,"x_max":0,"o":"m 488 476 l 488 0 l 686 0 l 686 476 l 815 476 l 815 617 l 686 617 l 686 661 b 751 740 686 707 708 740 b 817 721 778 740 797 733 l 840 861 b 706 892 804 881 758 892 b 488 654 567 892 488 808 l 488 617 l 289 617 l 289 657 b 354 732 289 703 308 732 b 431 708 382 732 410 721 l 471 833 b 308 878 429 858 386 878 b 90 650 169 878 90 794 l 90 617 l 0 617 l 0 476 l 90 476 l 90 0 l 289 0 l 289 476 z m 886 875 l 886 0 l 1088 0 l 1088 875 z "},"Ă":{"ha":944,"x_min":0,"x_max":0,"o":"m 354 875 l 4 0 l 215 0 l 289 189 l 642 189 l 717 0 l 942 0 l 589 875 z m 465 929 b 654 1122 585 929 654 1000 l 539 1122 b 465 1051 539 1075 510 1051 b 392 1122 421 1051 392 1075 l 276 1122 b 465 929 276 1000 346 929 z m 463 635 l 468 635 l 581 347 l 350 347 z "},"Ā":{"ha":944,"x_min":0,"x_max":0,"o":"m 354 875 l 4 0 l 215 0 l 289 189 l 642 189 l 717 0 l 942 0 l 589 875 z m 272 936 l 660 936 l 660 1074 l 272 1074 z m 463 635 l 468 635 l 581 347 l 350 347 z "},"Ą":{"ha":944,"x_min":0,"x_max":0,"o":"m 354 875 l 4 0 l 215 0 l 289 189 l 643 189 l 717 0 l 790 0 b 704 -144 738 -42 704 -89 b 831 -243 704 -204 751 -243 b 940 -210 886 -243 917 -225 l 940 -118 b 876 -136 919 -128 900 -136 b 836 -99 851 -136 836 -122 b 942 0 836 -68 863 -44 l 589 875 z m 463 635 l 468 635 l 581 347 l 350 347 z "},"Ǻ":{"ha":944,"x_min":0,"x_max":0,"o":"m 354 875 l 4 0 l 215 0 l 289 189 l 642 189 l 717 0 l 942 0 l 589 875 z m 335 1021 b 468 903 335 954 388 903 b 601 1021 549 903 601 954 b 468 1140 601 1089 549 1140 b 335 1021 388 1140 335 1089 z m 463 635 l 468 635 l 581 347 l 350 347 z m 542 1168 l 658 1322 l 456 1322 l 399 1168 z m 417 1021 b 468 1067 417 1050 433 1067 b 519 1021 503 1067 519 1050 b 468 975 519 993 503 975 b 417 1021 433 975 417 993 z "},"Ǽ":{"ha":1376,"x_min":0,"x_max":0,"o":"m 531 875 l 4 0 l 225 0 l 350 211 l 661 211 l 661 0 l 1335 0 l 1335 174 l 868 174 l 868 358 l 1221 358 l 1221 529 l 868 529 l 868 701 l 1322 701 l 1322 875 z m 656 726 l 661 726 l 661 371 l 444 371 z m 985 931 l 1119 1122 l 915 1122 l 840 931 z "},"Ć":{"ha":928,"x_min":0,"x_max":0,"o":"m 32 438 b 476 -17 32 168 224 -17 b 899 369 740 -17 883 150 l 697 378 b 475 169 685 267 621 169 b 249 438 335 169 249 274 b 475 706 249 601 335 706 b 697 497 621 706 685 608 l 899 506 b 476 892 883 725 740 892 b 32 438 224 892 32 707 z m 558 931 l 693 1122 l 489 1122 l 414 931 z "},"Č":{"ha":928,"x_min":0,"x_max":0,"o":"m 32 438 b 476 -17 32 168 224 -17 b 899 369 740 -17 883 150 l 697 378 b 475 169 685 267 621 169 b 249 438 335 169 249 274 b 475 706 249 601 335 706 b 697 497 621 706 685 608 l 899 506 b 476 892 883 725 740 892 b 32 438 224 892 32 707 z m 582 931 l 700 1122 l 571 1122 l 485 1040 l 399 1122 l 269 1122 l 388 931 z "},"Ĉ":{"ha":928,"x_min":0,"x_max":0,"o":"m 32 438 b 476 -17 32 168 224 -17 b 899 369 740 -17 883 150 l 697 378 b 475 169 685 267 621 169 b 249 438 335 169 249 274 b 475 706 249 601 335 706 b 697 497 621 706 685 608 l 899 506 b 476 892 883 725 740 892 b 32 438 224 892 32 707 z m 388 1122 l 269 931 l 399 931 l 485 1013 l 571 931 l 700 931 l 582 1122 z "},"Ċ":{"ha":928,"x_min":0,"x_max":0,"o":"m 382 932 l 586 932 l 586 1114 l 382 1114 z m 32 438 b 476 -17 32 168 224 -17 b 899 369 740 -17 883 150 l 697 378 b 475 169 685 267 621 169 b 249 438 335 169 249 274 b 475 706 249 601 335 706 b 697 497 621 706 685 608 l 899 506 b 476 892 883 725 740 892 b 32 438 224 892 32 707 z "},"Ď":{"ha":906,"x_min":0,"x_max":0,"o":"m 514 931 l 632 1122 l 503 1122 l 417 1040 l 331 1122 l 201 1122 l 319 931 z m 282 167 l 282 708 l 396 708 b 657 439 561 708 657 608 b 396 167 657 267 561 167 z m 71 0 l 410 0 b 875 438 697 0 875 164 b 410 875 875 711 697 875 l 71 875 z "},"Đ":{"ha":933,"x_min":0,"x_max":0,"o":"m 18 358 l 99 358 l 99 0 l 438 0 b 903 438 725 0 903 164 b 438 875 903 711 725 875 l 99 875 l 99 529 l 18 529 z m 310 167 l 310 358 l 504 358 l 504 529 l 310 529 l 310 708 l 424 708 b 685 439 589 708 685 608 b 424 167 685 267 589 167 z "},"Ĕ":{"ha":788,"x_min":0,"x_max":0,"o":"m 415 929 b 604 1122 535 929 604 1000 l 489 1122 b 415 1051 489 1075 460 1051 b 342 1122 371 1051 342 1075 l 226 1122 b 415 929 226 1000 296 929 z m 746 174 l 278 174 l 278 358 l 632 358 l 632 529 l 278 529 l 278 701 l 733 701 l 733 875 l 71 875 l 71 0 l 746 0 z "},"Ě":{"ha":788,"x_min":0,"x_max":0,"o":"m 513 931 l 631 1122 l 501 1122 l 415 1040 l 329 1122 l 200 1122 l 318 931 z m 746 174 l 278 174 l 278 358 l 632 358 l 632 529 l 278 529 l 278 701 l 733 701 l 733 875 l 71 875 l 71 0 l 746 0 z "},"Ė":{"ha":788,"x_min":0,"x_max":0,"o":"m 313 932 l 517 932 l 517 1114 l 313 1114 z m 746 174 l 278 174 l 278 358 l 632 358 l 632 529 l 278 529 l 278 701 l 733 701 l 733 875 l 71 875 l 71 0 l 746 0 z "},"Ē":{"ha":788,"x_min":0,"x_max":0,"o":"m 222 936 l 610 936 l 610 1074 l 222 1074 z m 746 174 l 278 174 l 278 358 l 632 358 l 632 529 l 278 529 l 278 701 l 733 701 l 733 875 l 71 875 l 71 0 l 746 0 z "},"Ę":{"ha":788,"x_min":0,"x_max":0,"o":"m 746 174 l 278 174 l 278 358 l 632 358 l 632 529 l 278 529 l 278 701 l 733 701 l 733 875 l 71 875 l 71 0 l 569 0 b 482 -144 517 -42 482 -89 b 608 -243 482 -204 531 -243 b 719 -210 665 -243 696 -225 l 719 -118 b 656 -136 699 -128 679 -136 b 615 -99 631 -136 615 -122 b 689 0 615 -68 639 -44 l 746 0 z "},"Ğ":{"ha":968,"x_min":0,"x_max":0,"o":"m 492 929 b 681 1122 611 929 681 1000 l 565 1122 b 492 1051 565 1075 536 1051 b 418 1122 447 1051 418 1075 l 303 1122 b 492 929 303 1000 372 929 z m 457 -17 b 721 110 574 -17 674 22 l 721 0 l 906 0 l 906 449 l 497 449 l 497 296 l 707 296 b 499 161 676 210 594 161 b 249 438 339 161 249 271 b 482 706 249 600 336 706 b 694 525 608 706 683 635 l 900 532 b 478 892 881 753 732 892 b 32 438 228 892 32 707 b 457 -17 32 167 214 -17 z "},"Ĝ":{"ha":968,"x_min":0,"x_max":0,"o":"m 457 -17 b 721 110 574 -17 674 22 l 721 0 l 906 0 l 906 449 l 497 449 l 497 296 l 707 296 b 499 161 676 210 594 161 b 249 438 339 161 249 271 b 482 706 249 600 336 706 b 694 525 608 706 683 635 l 900 532 b 478 892 881 753 732 892 b 32 438 228 892 32 707 b 457 -17 32 167 214 -17 z m 394 1122 l 276 931 l 406 931 l 492 1013 l 578 931 l 707 931 l 589 1122 z "},"Ģ":{"ha":968,"x_min":0,"x_max":0,"o":"m 407 -181 l 478 -181 b 407 -226 476 -217 456 -226 l 407 -296 b 588 -149 528 -296 588 -250 l 588 -53 l 407 -53 z m 457 -17 b 721 110 574 -17 674 22 l 721 0 l 906 0 l 906 449 l 497 449 l 497 296 l 707 296 b 499 161 676 210 594 161 b 249 438 339 161 249 271 b 482 706 249 600 336 706 b 694 525 608 706 683 635 l 900 532 b 478 892 881 753 732 892 b 32 438 228 892 32 707 b 457 -17 32 167 214 -17 z "},"Ġ":{"ha":968,"x_min":0,"x_max":0,"o":"m 389 932 l 593 932 l 593 1114 l 389 1114 z m 457 -17 b 721 110 574 -17 674 22 l 721 0 l 906 0 l 906 449 l 497 449 l 497 296 l 707 296 b 499 161 676 210 594 161 b 249 438 339 161 249 271 b 482 706 249 600 336 706 b 694 525 608 706 683 635 l 900 532 b 478 892 881 753 732 892 b 32 438 228 892 32 707 b 457 -17 32 167 214 -17 z "},"Ħ":{"ha":1000,"x_min":0,"x_max":0,"o":"m 18 569 l 99 569 l 99 0 l 308 0 l 308 296 l 692 296 l 692 0 l 901 0 l 901 569 l 982 569 l 982 742 l 901 742 l 901 875 l 692 875 l 692 742 l 308 742 l 308 875 l 99 875 l 99 742 l 18 742 z m 308 467 l 308 569 l 692 569 l 692 467 z "},"Ĥ":{"ha":946,"x_min":0,"x_max":0,"o":"m 282 0 l 282 358 l 664 358 l 664 0 l 875 0 l 875 875 l 664 875 l 664 529 l 282 529 l 282 875 l 71 875 l 71 0 z m 375 1122 l 257 931 l 386 931 l 472 1013 l 558 931 l 688 931 l 569 1122 z "},"Ĭ":{"ha":353,"x_min":0,"x_max":0,"o":"m 71 875 l 71 0 l 282 0 l 282 875 z m 176 929 b 365 1122 296 929 365 1000 l 250 1122 b 176 1051 250 1075 221 1051 b 103 1122 132 1051 103 1075 l -12 1122 b 176 929 -12 1000 57 929 z "},"İ":{"ha":353,"x_min":0,"x_max":0,"o":"m 71 875 l 71 0 l 282 0 l 282 875 z m 74 932 l 278 932 l 278 1114 l 74 1114 z "},"Ī":{"ha":353,"x_min":0,"x_max":0,"o":"m 71 875 l 71 0 l 282 0 l 282 875 z m -15 936 l 367 936 l 367 1074 l -15 1074 z "},"Į":{"ha":353,"x_min":0,"x_max":0,"o":"m 71 875 l 71 0 l 132 0 b 44 -144 78 -42 44 -89 b 171 -243 44 -204 93 -243 b 282 -210 228 -243 258 -225 l 282 -118 b 218 -136 261 -128 242 -136 b 178 -99 193 -136 178 -122 b 282 0 178 -68 201 -46 l 282 875 z "},"Ĩ":{"ha":353,"x_min":0,"x_max":0,"o":"m 67 929 b 111 983 69 968 88 983 b 261 925 158 983 196 925 b 382 1119 340 925 382 1006 l 286 1119 b 242 1065 283 1081 265 1065 b 92 1124 194 1065 157 1124 b -29 929 11 1124 -29 1044 z m 71 875 l 71 0 l 282 0 l 282 875 z "},"Ĳ":{"ha":1107,"x_min":0,"x_max":0,"o":"m 71 875 l 71 0 l 282 0 l 282 875 z m 838 875 l 838 331 b 703 161 838 215 796 161 b 556 344 608 161 563 226 l 353 336 b 704 -17 356 108 488 -17 b 1049 314 907 -17 1049 85 l 1049 875 z "},"Ĵ":{"ha":765,"x_min":0,"x_max":0,"o":"m 497 875 l 497 331 b 363 161 497 215 456 161 b 215 344 268 161 222 226 l 13 336 b 364 -17 15 108 147 -17 b 708 314 567 -17 708 85 l 708 875 z m 503 1122 l 385 931 l 514 931 l 600 1013 l 686 931 l 815 931 l 697 1122 z "},"Ķ":{"ha":874,"x_min":0,"x_max":0,"o":"m 349 -181 l 419 -181 b 349 -226 418 -217 397 -226 l 349 -296 b 529 -149 469 -296 529 -250 l 529 -53 l 349 -53 z m 885 0 l 517 500 l 863 875 l 619 875 l 282 504 l 282 875 l 71 875 l 71 0 l 282 0 l 282 275 l 364 363 l 632 0 z "},"Ĺ":{"ha":761,"x_min":0,"x_max":0,"o":"m 253 931 l 388 1122 l 183 1122 l 108 931 z m 71 875 l 71 0 l 726 0 l 726 174 l 282 174 l 282 875 z "},"Ľ":{"ha":761,"x_min":0,"x_max":0,"o":"m 531 674 l 619 875 l 424 875 l 404 674 z m 71 875 l 71 0 l 726 0 l 726 174 l 282 174 l 282 875 z "},"Ļ":{"ha":761,"x_min":0,"x_max":0,"o":"m 308 -181 l 379 -181 b 308 -226 378 -217 357 -226 l 308 -296 b 489 -149 429 -296 489 -250 l 489 -53 l 308 -53 z m 71 875 l 71 0 l 726 0 l 726 174 l 282 174 l 282 875 z "},"Ŀ":{"ha":761,"x_min":0,"x_max":0,"o":"m 71 875 l 71 0 l 726 0 l 726 174 l 282 174 l 282 875 z m 467 399 l 671 399 l 671 582 l 467 582 z "},"Ń":{"ha":910,"x_min":0,"x_max":0,"o":"m 539 931 l 674 1122 l 469 1122 l 394 931 z m 274 875 l 71 875 l 71 0 l 265 0 l 265 558 l 671 0 l 839 0 l 839 875 l 646 875 l 646 350 z "},"Ň":{"ha":910,"x_min":0,"x_max":0,"o":"m 565 931 l 683 1122 l 554 1122 l 468 1040 l 382 1122 l 253 1122 l 371 931 z m 274 875 l 71 875 l 71 0 l 265 0 l 265 558 l 671 0 l 839 0 l 839 875 l 646 875 l 646 350 z "},"Ņ":{"ha":910,"x_min":0,"x_max":0,"o":"m 378 -181 l 449 -181 b 378 -226 447 -217 426 -226 l 378 -296 b 558 -149 499 -296 558 -250 l 558 -53 l 378 -53 z m 274 875 l 71 875 l 71 0 l 265 0 l 265 558 l 671 0 l 839 0 l 839 875 l 646 875 l 646 350 z "},"Ŋ":{"ha":910,"x_min":0,"x_max":0,"o":"m 369 -147 b 583 -242 408 -200 492 -242 b 839 43 747 -242 839 -149 l 839 875 l 646 875 l 646 347 l 274 875 l 71 875 l 71 0 l 265 0 l 265 558 l 644 33 b 560 -72 644 -40 624 -72 b 458 -24 519 -72 483 -51 z "},"Ŏ":{"ha":963,"x_min":0,"x_max":0,"o":"m 481 929 b 669 1122 600 929 669 1000 l 554 1122 b 481 1051 554 1075 525 1051 b 407 1122 436 1051 407 1075 l 292 1122 b 481 929 292 1000 361 929 z m 931 438 b 481 892 931 707 736 892 b 32 438 226 892 32 707 b 481 -17 32 168 226 -17 b 931 438 736 -17 931 168 z m 714 438 b 481 168 714 275 624 168 b 249 438 339 168 249 275 b 481 707 249 600 339 707 b 714 438 624 707 714 600 z "},"Ő":{"ha":963,"x_min":0,"x_max":0,"o":"m 931 438 b 481 892 931 707 736 892 b 32 438 226 892 32 707 b 481 -17 32 168 226 -17 b 931 438 736 -17 931 168 z m 714 438 b 481 168 714 275 624 168 b 249 438 339 168 249 275 b 481 707 249 600 339 707 b 714 438 624 707 714 600 z m 429 931 l 549 1122 l 358 1122 l 300 931 z m 657 931 l 775 1122 l 586 1122 l 526 931 z "},"Ō":{"ha":963,"x_min":0,"x_max":0,"o":"m 288 936 l 675 936 l 675 1074 l 288 1074 z m 931 438 b 481 892 931 707 736 892 b 32 438 226 892 32 707 b 481 -17 32 168 226 -17 b 931 438 736 -17 931 168 z m 714 438 b 481 168 714 275 624 168 b 249 438 339 168 249 275 b 481 707 249 600 339 707 b 714 438 624 707 714 600 z "},"Ǿ":{"ha":963,"x_min":0,"x_max":0,"o":"m 931 438 b 801 765 931 572 882 686 l 872 857 l 782 922 l 713 832 b 481 892 644 871 567 892 b 32 438 226 892 32 707 b 154 115 32 306 78 194 l 76 15 l 167 -50 l 242 47 b 481 -17 311 6 392 -17 b 931 438 736 -17 931 168 z m 714 438 b 481 168 714 275 624 168 b 361 199 435 168 394 179 l 674 601 b 714 438 699 557 714 501 z m 249 438 b 481 707 249 600 339 707 b 593 679 524 707 561 697 l 283 282 b 249 438 261 324 249 376 z m 551 931 l 686 1122 l 482 1122 l 407 931 z "},"Ŕ":{"ha":874,"x_min":0,"x_max":0,"o":"m 843 0 b 797 203 814 32 810 74 b 642 378 788 306 735 360 b 831 601 749 392 831 472 b 493 875 831 769 719 875 l 71 875 l 71 0 l 278 0 l 278 304 l 454 304 b 593 174 542 304 586 272 b 629 0 600 81 611 24 z m 278 467 l 278 706 l 460 706 b 624 585 569 706 624 663 b 460 467 624 499 569 467 z m 510 931 l 644 1122 l 440 1122 l 365 931 z "},"Ř":{"ha":874,"x_min":0,"x_max":0,"o":"m 536 931 l 654 1122 l 525 1122 l 439 1040 l 353 1122 l 224 1122 l 342 931 z m 843 0 b 797 203 814 32 810 74 b 642 378 788 306 735 360 b 831 601 749 392 831 472 b 493 875 831 769 719 875 l 71 875 l 71 0 l 278 0 l 278 304 l 454 304 b 593 174 542 304 586 272 b 629 0 600 81 611 24 z m 278 467 l 278 706 l 460 706 b 624 585 569 706 624 663 b 460 467 624 499 569 467 z "},"Ŗ":{"ha":874,"x_min":0,"x_max":0,"o":"m 349 -181 l 419 -181 b 349 -226 418 -217 397 -226 l 349 -296 b 529 -149 469 -296 529 -250 l 529 -53 l 349 -53 z m 843 0 b 797 203 814 32 810 74 b 642 378 788 306 735 360 b 831 601 749 392 831 472 b 493 875 831 769 719 875 l 71 875 l 71 0 l 278 0 l 278 304 l 454 304 b 593 174 542 304 586 272 b 629 0 600 81 611 24 z m 278 467 l 278 706 l 460 706 b 624 585 569 706 624 663 b 460 467 624 499 569 467 z "},"Ś":{"ha":828,"x_min":0,"x_max":0,"o":"m 28 311 b 428 -17 28 99 194 -17 b 785 257 628 -17 785 76 b 524 521 785 400 703 489 l 360 550 b 257 631 296 563 257 581 b 396 726 257 690 307 726 b 574 574 497 726 568 676 l 768 579 b 397 892 764 774 635 892 b 50 613 185 892 50 785 b 288 360 50 464 149 386 l 451 331 b 579 243 528 315 579 301 b 428 149 579 185 521 149 b 221 318 319 149 229 197 z m 485 931 l 619 1122 l 415 1122 l 340 931 z "},"Ş":{"ha":828,"x_min":0,"x_max":0,"o":"m 575 -142 b 415 -53 575 -65 497 -36 l 443 -17 b 785 257 636 -11 785 81 b 524 521 785 400 703 489 l 360 550 b 257 631 296 563 257 581 b 396 726 257 690 307 726 b 574 574 497 726 568 676 l 768 579 b 397 892 764 774 635 892 b 50 613 185 892 50 785 b 288 360 50 464 149 386 l 451 331 b 579 243 528 315 579 301 b 428 149 579 185 521 149 b 221 318 319 149 229 197 l 28 311 b 379 -14 28 114 171 0 l 314 -108 l 354 -124 b 454 -146 393 -107 454 -104 b 396 -178 454 -169 432 -178 b 278 -144 349 -178 308 -162 l 254 -196 b 411 -243 285 -221 343 -243 b 575 -142 494 -243 575 -217 z "},"Ŝ":{"ha":828,"x_min":0,"x_max":0,"o":"m 28 311 b 428 -17 28 99 194 -17 b 785 257 628 -17 785 76 b 524 521 785 400 703 489 l 360 550 b 257 631 296 563 257 581 b 396 726 257 690 307 726 b 574 574 497 726 568 676 l 768 579 b 397 892 764 774 635 892 b 50 613 185 892 50 785 b 288 360 50 464 149 386 l 451 331 b 579 243 528 315 579 301 b 428 149 579 185 521 149 b 221 318 319 149 229 197 z m 318 1122 l 200 931 l 329 931 l 415 1013 l 501 931 l 631 931 l 513 1122 z "},"Ș":{"ha":828,"x_min":0,"x_max":0,"o":"m 325 -181 l 396 -181 b 325 -226 394 -217 374 -226 l 325 -296 b 506 -149 446 -296 506 -250 l 506 -53 l 325 -53 z m 28 311 b 428 -17 28 99 194 -17 b 785 257 628 -17 785 76 b 524 521 785 400 703 489 l 360 550 b 257 631 296 563 257 581 b 396 726 257 690 307 726 b 574 574 497 726 568 676 l 768 579 b 397 892 764 774 635 892 b 50 613 185 892 50 785 b 288 360 50 464 149 386 l 451 331 b 579 243 528 315 579 301 b 428 149 579 185 521 149 b 221 318 319 149 229 197 z "},"Ŧ":{"ha":889,"x_min":0,"x_max":0,"o":"m 176 335 l 338 335 l 338 0 l 547 0 l 547 335 l 708 335 l 708 507 l 547 507 l 547 701 l 856 701 l 856 875 l 33 875 l 33 701 l 338 701 l 338 507 l 176 507 z "},"Ť":{"ha":889,"x_min":0,"x_max":0,"o":"m 542 931 l 660 1122 l 531 1122 l 444 1040 l 358 1122 l 229 1122 l 347 931 z m 547 0 l 547 701 l 856 701 l 856 875 l 33 875 l 33 701 l 338 701 l 338 0 z "},"Ŭ":{"ha":903,"x_min":0,"x_max":0,"o":"m 451 929 b 640 1122 571 929 640 1000 l 525 1122 b 451 1051 525 1075 496 1051 b 378 1122 407 1051 378 1075 l 263 1122 b 451 929 263 1000 332 929 z m 451 -17 b 840 344 671 -17 840 89 l 840 875 l 631 875 l 631 374 b 451 161 631 235 581 161 b 274 375 324 161 274 235 l 274 875 l 64 875 l 64 344 b 451 -17 64 89 233 -17 z "},"Ű":{"ha":903,"x_min":0,"x_max":0,"o":"m 451 -17 b 840 344 671 -17 840 89 l 840 875 l 631 875 l 631 374 b 451 161 631 235 581 161 b 274 375 324 161 274 235 l 274 875 l 64 875 l 64 344 b 451 -17 64 89 233 -17 z m 400 931 l 519 1122 l 329 1122 l 271 931 z m 628 931 l 746 1122 l 557 1122 l 497 931 z "},"Ū":{"ha":903,"x_min":0,"x_max":0,"o":"m 258 936 l 646 936 l 646 1074 l 258 1074 z m 451 -17 b 840 344 671 -17 840 89 l 840 875 l 631 875 l 631 374 b 451 161 631 235 581 161 b 274 375 324 161 274 235 l 274 875 l 64 875 l 64 344 b 451 -17 64 89 233 -17 z "},"Ų":{"ha":903,"x_min":0,"x_max":0,"o":"m 451 -17 b 482 -15 461 -17 472 -17 b 414 -144 440 -54 414 -96 b 540 -243 414 -204 463 -243 b 651 -210 597 -243 628 -225 l 651 -118 b 588 -136 631 -128 611 -136 b 547 -99 563 -136 547 -122 b 639 15 547 -65 576 -40 b 840 344 760 64 840 169 l 840 875 l 631 875 l 631 374 b 451 161 631 235 581 161 b 274 375 324 161 274 235 l 274 875 l 64 875 l 64 344 b 451 -17 64 89 233 -17 z "},"Ů":{"ha":903,"x_min":0,"x_max":0,"o":"m 451 -17 b 840 344 671 -17 840 89 l 840 875 l 631 875 l 631 374 b 451 161 631 235 581 161 b 274 375 324 161 274 235 l 274 875 l 64 875 l 64 344 b 451 -17 64 89 233 -17 z m 401 1047 b 451 1097 401 1076 418 1097 b 501 1047 485 1097 501 1076 b 451 997 501 1018 485 997 b 401 1047 418 997 401 1018 z m 318 1047 b 451 919 318 974 371 919 b 585 1047 532 919 585 974 b 451 1175 585 1121 532 1175 b 318 1047 371 1175 318 1121 z "},"Ũ":{"ha":903,"x_min":0,"x_max":0,"o":"m 339 931 b 385 983 342 969 360 983 b 538 926 433 983 471 926 b 661 1119 618 926 661 1006 l 564 1119 b 518 1065 561 1081 543 1065 b 365 1124 469 1065 431 1124 b 242 931 283 1124 242 1044 z m 451 -17 b 840 344 671 -17 840 89 l 840 875 l 631 875 l 631 374 b 451 161 631 235 581 161 b 274 375 324 161 274 235 l 274 875 l 64 875 l 64 344 b 451 -17 64 89 233 -17 z "},"Ẃ":{"ha":1228,"x_min":0,"x_max":0,"o":"m 683 931 l 818 1122 l 614 1122 l 539 931 z m 713 875 l 522 875 l 368 288 l 363 288 l 214 875 l 4 875 l 232 0 l 456 0 l 610 585 l 615 585 l 769 0 l 996 0 l 1225 875 l 1021 875 l 874 288 l 868 288 z "},"Ŵ":{"ha":1228,"x_min":0,"x_max":0,"o":"m 713 875 l 522 875 l 368 288 l 363 288 l 214 875 l 4 875 l 232 0 l 456 0 l 610 585 l 615 585 l 769 0 l 996 0 l 1225 875 l 1021 875 l 874 288 l 868 288 z m 517 1122 l 399 931 l 528 931 l 614 1013 l 700 931 l 829 931 l 711 1122 z "},"Ẁ":{"ha":1228,"x_min":0,"x_max":0,"o":"m 689 931 l 614 1122 l 410 1122 l 544 931 z m 713 875 l 522 875 l 368 288 l 363 288 l 214 875 l 4 875 l 232 0 l 456 0 l 610 585 l 615 585 l 769 0 l 996 0 l 1225 875 l 1021 875 l 874 288 l 868 288 z "},"Ẅ":{"ha":1228,"x_min":0,"x_max":0,"o":"m 401 932 l 581 932 l 581 1114 l 401 1114 z m 647 932 l 826 932 l 826 1114 l 647 1114 z m 713 875 l 522 875 l 368 288 l 363 288 l 214 875 l 4 875 l 232 0 l 456 0 l 610 585 l 615 585 l 769 0 l 996 0 l 1225 875 l 1021 875 l 874 288 l 868 288 z "},"Ŷ":{"ha":886,"x_min":0,"x_max":0,"o":"m 451 538 l 238 875 l 4 875 l 340 335 l 340 0 l 544 0 l 544 335 l 882 875 l 656 875 z m 346 1122 l 228 931 l 357 931 l 443 1013 l 529 931 l 658 931 l 540 1122 z "},"Ỳ":{"ha":886,"x_min":0,"x_max":0,"o":"m 451 538 l 238 875 l 4 875 l 340 335 l 340 0 l 544 0 l 544 335 l 882 875 l 656 875 z m 518 931 l 443 1122 l 239 1122 l 374 931 z "},"Ź":{"ha":815,"x_min":0,"x_max":0,"o":"m 307 174 l 761 713 l 761 875 l 46 875 l 46 701 l 493 701 l 42 158 l 42 0 l 774 0 l 774 174 z m 481 931 l 615 1122 l 411 1122 l 336 931 z "},"Ż":{"ha":815,"x_min":0,"x_max":0,"o":"m 307 932 l 511 932 l 511 1114 l 307 1114 z m 307 174 l 761 713 l 761 875 l 46 875 l 46 701 l 493 701 l 42 158 l 42 0 l 774 0 l 774 174 z "},"ă":{"ha":721,"x_min":0,"x_max":0,"o":"m 428 261 b 296 118 428 174 369 118 b 225 176 253 118 225 140 b 326 253 225 225 264 240 l 428 274 z m 625 393 b 349 633 625 561 510 633 b 53 410 172 633 74 542 l 239 396 b 338 483 250 447 279 483 b 428 390 399 483 428 449 l 428 379 l 256 349 b 31 154 119 322 31 272 b 232 -14 31 49 108 -14 b 439 94 328 -14 404 24 b 585 -14 457 25 511 -14 b 715 26 646 -14 685 4 l 715 133 b 664 122 697 125 682 122 b 625 168 639 122 625 136 z m 354 682 b 543 875 474 682 543 753 l 428 875 b 354 804 428 826 399 804 b 281 875 310 804 281 826 l 165 875 b 354 682 165 753 235 682 z "},"ā":{"ha":721,"x_min":0,"x_max":0,"o":"m 428 261 b 296 118 428 174 369 118 b 225 176 253 118 225 140 b 326 253 225 225 264 240 l 428 274 z m 625 393 b 349 633 625 561 510 633 b 53 410 172 633 74 542 l 239 396 b 338 483 250 447 279 483 b 428 390 399 483 428 449 l 428 379 l 256 349 b 31 154 119 322 31 272 b 232 -14 31 49 108 -14 b 439 94 328 -14 404 24 b 585 -14 457 25 511 -14 b 715 26 646 -14 685 4 l 715 133 b 664 122 697 125 682 122 b 625 168 639 122 625 136 z m 167 690 l 543 690 l 543 826 l 167 826 z "},"ą":{"ha":721,"x_min":0,"x_max":0,"o":"m 625 393 b 349 633 625 561 510 633 b 53 410 172 633 74 542 l 239 396 b 338 483 250 447 279 483 b 428 390 399 483 428 449 l 428 379 l 256 349 b 31 154 119 322 31 272 b 231 -14 31 49 108 -14 b 439 94 328 -14 404 22 b 551 -11 454 38 494 0 b 478 -144 506 -50 478 -94 b 604 -243 478 -204 526 -243 b 715 -210 661 -243 692 -225 l 715 -118 b 651 -136 694 -128 674 -136 b 611 -99 626 -136 611 -122 b 715 25 611 -61 646 -32 l 715 133 b 664 122 697 125 682 122 b 625 168 639 122 625 136 z m 428 263 b 296 118 428 174 369 118 b 225 176 253 118 225 140 b 326 253 225 224 263 240 l 428 274 z "},"ǻ":{"ha":721,"x_min":0,"x_max":0,"o":"m 428 925 l 544 1079 l 342 1079 l 285 925 z m 304 776 b 354 822 304 804 321 822 b 406 776 389 822 406 804 b 354 731 406 749 389 731 b 304 776 321 731 304 749 z m 221 776 b 354 657 221 708 274 657 b 489 776 435 657 489 708 b 354 894 489 844 435 894 b 221 776 274 894 221 844 z m 428 261 b 296 118 428 174 369 118 b 225 176 253 118 225 140 b 326 253 225 225 264 240 l 428 274 z m 625 393 b 349 633 625 561 510 633 b 53 410 172 633 74 542 l 239 396 b 338 483 250 447 279 483 b 428 390 399 483 428 449 l 428 379 l 256 349 b 31 154 119 322 31 272 b 232 -14 31 49 108 -14 b 439 94 328 -14 404 24 b 585 -14 457 25 511 -14 b 715 26 646 -14 685 4 l 715 133 b 664 122 697 125 682 122 b 625 168 639 122 625 136 z "},"ǽ":{"ha":1083,"x_min":0,"x_max":0,"o":"m 610 682 l 744 875 l 540 875 l 465 682 z m 331 633 b 56 414 188 633 76 546 l 231 403 b 339 483 243 450 281 483 b 438 383 400 483 438 446 l 438 371 l 338 371 b 31 165 143 371 31 301 b 250 -14 31 64 108 -14 b 493 104 374 -14 451 38 b 743 -17 546 26 626 -17 b 1047 204 904 -17 1015 64 l 885 219 b 750 135 863 161 819 135 b 601 267 681 135 614 172 l 1050 267 l 1050 325 b 739 633 1050 493 943 633 b 531 547 658 633 575 599 b 331 633 488 607 419 633 z m 303 117 b 225 185 251 117 225 146 b 349 267 225 240 264 267 l 438 267 l 438 253 b 303 117 438 167 376 117 z m 738 488 b 857 371 814 488 853 433 l 604 371 b 738 488 621 449 671 488 z "},"ć":{"ha":693,"x_min":0,"x_max":0,"o":"m 432 682 l 567 875 l 363 875 l 288 682 z m 31 308 b 364 -17 31 113 171 -17 b 665 251 547 -17 650 103 l 499 265 b 365 136 485 182 440 136 b 233 308 288 136 233 190 b 365 481 233 426 288 481 b 499 353 440 481 485 436 l 665 365 b 364 633 650 513 547 633 b 31 308 171 633 31 503 z "},"č":{"ha":693,"x_min":0,"x_max":0,"o":"m 458 682 l 576 875 l 447 875 l 361 793 l 275 875 l 146 875 l 264 682 z m 31 308 b 364 -17 31 113 171 -17 b 665 251 547 -17 650 103 l 499 265 b 365 136 485 182 440 136 b 233 308 288 136 233 190 b 365 481 233 426 288 481 b 499 353 440 481 485 436 l 665 365 b 364 633 650 513 547 633 b 31 308 171 633 31 503 z "},"ĉ":{"ha":693,"x_min":0,"x_max":0,"o":"m 264 875 l 146 682 l 275 682 l 361 765 l 447 682 l 576 682 l 458 875 z m 31 308 b 364 -17 31 113 171 -17 b 665 251 547 -17 650 103 l 499 265 b 365 136 485 182 440 136 b 233 308 288 136 233 190 b 365 481 233 426 288 481 b 499 353 440 481 485 436 l 665 365 b 364 633 650 513 547 633 b 31 308 171 633 31 503 z "},"ċ":{"ha":693,"x_min":0,"x_max":0,"o":"m 31 308 b 364 -17 31 113 171 -17 b 665 251 547 -17 650 103 l 499 265 b 365 136 485 182 440 136 b 233 308 288 136 233 190 b 365 481 233 426 288 481 b 499 353 440 481 485 436 l 665 365 b 364 633 650 513 547 633 b 31 308 171 633 31 503 z m 258 692 l 463 692 l 463 875 l 258 875 z "},"ď":{"ha":778,"x_min":0,"x_max":0,"o":"m 885 674 l 974 875 l 778 875 l 758 674 z m 513 301 b 374 139 513 201 456 139 b 233 308 278 139 233 207 b 374 476 233 408 278 476 b 513 315 456 476 513 414 z m 513 0 l 714 0 l 714 875 l 513 875 l 513 506 b 306 633 483 579 411 633 b 31 308 124 633 31 489 b 306 -17 31 126 124 -17 b 513 110 411 -17 483 38 z "},"đ":{"ha":778,"x_min":0,"x_max":0,"o":"m 513 0 l 714 0 l 714 657 l 790 657 l 790 782 l 714 782 l 714 875 l 513 875 l 513 782 l 335 782 l 335 657 l 513 657 l 513 488 b 306 613 483 560 411 613 b 31 299 124 613 31 474 b 306 -17 31 121 124 -17 b 513 107 411 -17 483 36 z m 513 297 b 374 142 513 201 456 142 b 233 303 278 142 233 206 b 374 464 233 399 278 464 b 513 310 456 464 513 403 z "},"ĕ":{"ha":706,"x_min":0,"x_max":0,"o":"m 507 218 b 372 135 485 161 442 135 b 228 264 294 135 233 182 l 672 264 l 672 325 b 361 633 672 493 565 633 b 31 299 172 633 31 493 b 365 -17 31 103 169 -17 b 668 203 526 -17 636 63 z m 231 371 b 360 488 242 436 279 488 b 479 371 436 488 475 432 z m 364 682 b 553 875 483 682 553 753 l 438 875 b 364 804 438 826 408 804 b 290 875 319 804 290 826 l 175 875 b 364 682 175 753 244 682 z "},"ě":{"ha":706,"x_min":0,"x_max":0,"o":"m 461 682 l 579 875 l 450 875 l 364 793 l 278 875 l 149 875 l 267 682 z m 507 218 b 372 135 485 161 442 135 b 228 264 294 135 233 182 l 672 264 l 672 325 b 361 633 672 493 565 633 b 31 299 172 633 31 493 b 365 -17 31 103 169 -17 b 668 203 526 -17 636 63 z m 231 371 b 360 488 242 436 279 488 b 479 371 436 488 475 432 z "},"ė":{"ha":706,"x_min":0,"x_max":0,"o":"m 507 218 b 372 135 485 161 442 135 b 228 264 294 135 233 182 l 672 264 l 672 325 b 361 633 672 493 565 633 b 31 299 172 633 31 493 b 365 -17 31 103 169 -17 b 668 203 526 -17 636 63 z m 231 371 b 360 488 242 436 279 488 b 479 371 436 488 475 432 z m 261 692 l 465 692 l 465 875 l 261 875 z "},"ē":{"ha":706,"x_min":0,"x_max":0,"o":"m 507 218 b 372 135 485 161 442 135 b 228 264 294 135 233 182 l 672 264 l 672 325 b 361 633 672 493 565 633 b 31 299 172 633 31 493 b 365 -17 31 103 169 -17 b 668 203 526 -17 636 63 z m 231 371 b 360 488 242 436 279 488 b 479 371 436 488 475 432 z m 176 690 l 553 690 l 553 826 l 176 826 z "},"ę":{"ha":706,"x_min":0,"x_max":0,"o":"m 507 218 b 372 135 485 160 442 135 b 228 264 294 135 233 182 l 672 264 l 672 325 b 361 633 672 493 565 633 b 31 299 172 633 31 493 b 365 -17 31 103 169 -17 l 378 -17 b 310 -144 335 -54 310 -96 b 436 -243 310 -204 357 -243 b 546 -210 492 -243 522 -225 l 546 -118 b 482 -136 525 -128 506 -136 b 442 -99 457 -136 442 -122 b 551 32 442 -64 475 -22 b 668 203 608 72 651 125 z m 231 371 b 360 488 242 436 279 488 b 479 371 436 488 475 432 z "},"ğ":{"ha":707,"x_min":0,"x_max":0,"o":"m 632 422 b 610 507 632 454 624 482 b 706 519 640 515 676 519 l 706 674 b 538 582 639 674 574 632 b 340 633 486 615 415 633 b 50 422 171 633 50 553 b 138 265 50 356 82 301 b 35 139 74 242 35 196 b 122 21 35 86 67 39 b 3 -87 51 14 3 -31 b 325 -242 3 -203 151 -242 b 706 -19 522 -242 706 -174 b 497 156 706 82 635 156 l 244 156 b 188 197 204 156 188 174 b 204 232 188 213 194 224 b 340 213 244 219 290 213 b 632 422 510 213 632 293 z m 354 682 b 543 875 474 682 543 753 l 428 875 b 354 804 428 826 399 804 b 281 875 310 804 281 826 l 165 875 b 354 682 165 753 235 682 z m 174 -64 b 231 -17 174 -32 199 -17 l 449 -17 b 519 -61 494 -17 519 -28 b 326 -131 519 -107 438 -131 b 174 -64 236 -131 174 -112 z m 425 422 b 342 324 425 360 390 324 b 260 422 294 324 260 360 b 342 518 260 483 294 518 b 425 422 390 518 425 483 z "},"ĝ":{"ha":707,"x_min":0,"x_max":0,"o":"m 632 422 b 610 507 632 454 624 482 b 706 519 640 515 676 519 l 706 674 b 538 582 639 674 574 632 b 340 633 486 615 415 633 b 50 422 171 633 50 553 b 138 265 50 356 82 301 b 35 139 74 242 35 196 b 122 21 35 86 67 39 b 3 -87 51 14 3 -31 b 325 -242 3 -203 151 -242 b 706 -19 522 -242 706 -174 b 497 156 706 82 635 156 l 244 156 b 188 197 204 156 188 174 b 204 232 188 213 194 224 b 340 213 244 219 290 213 b 632 422 510 213 632 293 z m 257 875 l 139 682 l 268 682 l 354 765 l 440 682 l 569 682 l 451 875 z m 174 -64 b 231 -17 174 -32 199 -17 l 449 -17 b 519 -61 494 -17 519 -28 b 326 -131 519 -107 438 -131 b 174 -64 236 -131 174 -112 z m 425 422 b 342 324 425 360 390 324 b 260 422 294 324 260 360 b 342 518 260 483 294 518 b 425 422 390 518 425 483 z "},"ģ":{"ha":707,"x_min":0,"x_max":0,"o":"m 632 422 b 610 507 632 454 624 482 b 706 519 640 515 676 519 l 706 674 b 538 582 639 674 574 632 b 340 633 486 615 415 633 b 50 422 171 633 50 553 b 138 265 50 356 82 301 b 35 139 74 242 35 196 b 122 21 35 86 67 39 b 3 -87 51 14 3 -31 b 325 -242 3 -203 151 -242 b 706 -19 522 -242 706 -174 b 497 156 706 82 635 156 l 244 156 b 188 197 204 156 188 174 b 204 232 188 213 194 224 b 340 213 244 219 290 213 b 632 422 510 213 632 293 z m 444 815 l 374 815 b 444 863 375 853 396 863 l 444 931 b 264 783 324 931 264 886 l 264 688 l 444 688 z m 174 -64 b 231 -17 174 -32 199 -17 l 449 -17 b 519 -61 494 -17 519 -28 b 326 -131 519 -107 438 -131 b 174 -64 236 -131 174 -112 z m 425 422 b 342 324 425 360 390 324 b 260 422 294 324 260 360 b 342 518 260 483 294 518 b 425 422 390 518 425 483 z "},"ġ":{"ha":707,"x_min":0,"x_max":0,"o":"m 632 422 b 610 507 632 454 624 482 b 706 519 640 515 676 519 l 706 674 b 538 582 639 674 574 632 b 340 633 486 615 415 633 b 50 422 171 633 50 553 b 138 265 50 356 82 301 b 35 139 74 242 35 196 b 122 21 35 86 67 39 b 3 -87 51 14 3 -31 b 325 -242 3 -203 151 -242 b 706 -19 522 -242 706 -174 b 497 156 706 82 635 156 l 244 156 b 188 197 204 156 188 174 b 204 232 188 213 194 224 b 340 213 244 219 290 213 b 632 422 510 213 632 293 z m 251 692 l 456 692 l 456 875 l 251 875 z m 174 -64 b 231 -17 174 -32 199 -17 l 449 -17 b 519 -61 494 -17 519 -28 b 326 -131 519 -107 438 -131 b 174 -64 236 -131 174 -112 z m 425 422 b 342 324 425 360 390 324 b 260 422 294 324 260 360 b 342 518 260 483 294 518 b 425 422 390 518 425 483 z "},"ħ":{"ha":747,"x_min":0,"x_max":0,"o":"m -11 657 l 65 657 l 65 0 l 265 0 l 265 294 b 386 456 265 392 306 456 b 489 318 460 456 489 406 l 489 0 l 689 0 l 689 367 b 467 614 689 499 633 614 b 265 501 374 614 299 569 l 265 657 l 444 657 l 444 782 l 265 782 l 265 875 l 65 875 l 65 782 l -11 782 z "},"ĥ":{"ha":747,"x_min":0,"x_max":0,"o":"m 265 314 b 386 475 265 411 306 475 b 489 338 460 475 489 426 l 489 0 l 689 0 l 689 386 b 467 633 689 518 633 633 b 265 521 374 633 299 589 l 265 875 l 65 875 l 65 0 l 265 0 z m 268 1122 l 150 931 l 279 931 l 365 1013 l 451 931 l 581 931 l 463 1122 z "},"ĭ":{"ha":331,"x_min":0,"x_max":0,"o":"m 65 617 l 65 0 l 265 0 l 265 617 z m 165 682 b 354 875 285 682 354 753 l 239 875 b 165 804 239 826 210 804 b 92 875 121 804 92 826 l -24 875 b 165 682 -24 753 46 682 z "},"ī":{"ha":331,"x_min":0,"x_max":0,"o":"m 65 617 l 65 0 l 265 0 l 265 617 z m 1 690 l 331 690 l 331 826 l 1 826 z "},"į":{"ha":331,"x_min":0,"x_max":0,"o":"m 65 617 l 65 0 l 117 0 b 29 -144 63 -42 29 -89 b 156 -243 29 -204 78 -243 b 267 -210 213 -243 243 -225 l 267 -118 b 203 -136 246 -128 226 -136 b 163 -99 178 -136 163 -122 b 265 0 163 -68 186 -46 l 265 617 z m 64 692 l 268 692 l 268 875 l 64 875 z "},"ĩ":{"ha":331,"x_min":0,"x_max":0,"o":"m 67 685 b 111 739 69 725 88 739 b 244 681 158 739 179 681 b 364 875 324 681 364 761 l 268 875 b 225 821 265 836 249 821 b 92 879 176 821 156 879 b -29 685 13 879 -29 800 z m 65 617 l 65 0 l 265 0 l 265 617 z "},"ĳ":{"ha":661,"x_min":0,"x_max":0,"o":"m 65 617 l 65 0 l 265 0 l 265 617 z m 64 692 l 268 692 l 268 875 l 64 875 z m 596 617 l 396 617 l 396 -28 b 336 -101 396 -79 375 -101 b 244 -75 306 -101 276 -94 l 211 -197 b 381 -242 250 -225 314 -242 b 596 -35 515 -242 596 -178 z m 394 692 l 599 692 l 599 875 l 394 875 z "},"ĵ":{"ha":331,"x_min":0,"x_max":0,"o":"m 265 617 l 65 617 l 65 -28 b 6 -101 65 -79 44 -101 b -86 -75 -25 -101 -54 -94 l -119 -197 b 50 -242 -81 -225 -17 -242 b 265 -35 185 -242 265 -178 z m 69 875 l -49 682 l 81 682 l 167 765 l 253 682 l 382 682 l 264 875 z "},"ķ":{"ha":739,"x_min":0,"x_max":0,"o":"m 289 -181 l 360 -181 b 289 -226 358 -217 338 -226 l 289 -296 b 469 -149 410 -296 469 -250 l 469 -53 l 289 -53 z m 265 201 l 326 261 l 519 0 l 746 0 l 476 372 l 736 617 l 499 617 l 265 389 l 265 875 l 65 875 l 65 0 l 265 0 z "},"ĸ":{"ha":739,"x_min":0,"x_max":0,"o":"m 265 201 l 326 261 l 519 0 l 746 0 l 476 372 l 736 617 l 499 617 l 265 389 l 265 617 l 65 617 l 65 0 l 265 0 z "},"ĺ":{"ha":331,"x_min":0,"x_max":0,"o":"m 235 931 l 369 1122 l 165 1122 l 90 931 z m 65 875 l 65 0 l 265 0 l 265 875 z "},"ľ":{"ha":331,"x_min":0,"x_max":0,"o":"m 435 674 l 524 875 l 328 875 l 308 674 z m 65 875 l 65 0 l 265 0 l 265 875 z "},"ļ":{"ha":331,"x_min":0,"x_max":0,"o":"m 75 -181 l 146 -181 b 75 -226 144 -217 124 -226 l 75 -296 b 256 -149 196 -296 256 -250 l 256 -53 l 75 -53 z m 65 875 l 65 0 l 265 0 l 265 875 z "},"ŀ":{"ha":544,"x_min":0,"x_max":0,"o":"m 65 875 l 65 0 l 265 0 l 265 875 z m 332 346 l 536 346 l 536 529 l 332 529 z "},"ń":{"ha":747,"x_min":0,"x_max":0,"o":"m 454 682 l 589 875 l 385 875 l 310 682 z m 265 314 b 386 475 265 411 306 475 b 489 338 460 475 489 426 l 489 0 l 689 0 l 689 386 b 467 633 689 518 633 633 b 265 521 374 633 299 589 l 265 617 l 65 617 l 65 0 l 265 0 z "},"ň":{"ha":747,"x_min":0,"x_max":0,"o":"m 482 682 l 600 875 l 471 875 l 385 793 l 299 875 l 169 875 l 288 682 z m 265 314 b 386 475 265 411 306 475 b 489 338 460 475 489 426 l 489 0 l 689 0 l 689 386 b 467 633 689 518 633 633 b 265 521 374 633 299 589 l 265 617 l 65 617 l 65 0 l 265 0 z "},"ņ":{"ha":747,"x_min":0,"x_max":0,"o":"m 296 -181 l 367 -181 b 296 -226 365 -217 344 -226 l 296 -296 b 476 -149 417 -296 476 -250 l 476 -53 l 296 -53 z m 265 314 b 386 475 265 411 306 475 b 489 338 460 475 489 426 l 489 0 l 689 0 l 689 386 b 467 633 689 518 633 633 b 265 521 374 633 299 589 l 265 617 l 65 617 l 65 0 l 265 0 z "},"ŋ":{"ha":747,"x_min":0,"x_max":0,"o":"m 489 -28 b 429 -101 489 -79 468 -101 b 338 -75 399 -101 369 -94 l 304 -197 b 474 -242 343 -225 407 -242 b 689 -35 608 -242 689 -178 l 689 386 b 467 633 689 518 633 633 b 265 521 374 633 299 589 l 265 617 l 65 617 l 65 0 l 265 0 l 265 314 b 386 475 265 411 306 475 b 489 338 460 475 489 426 z "},"ŏ":{"ha":726,"x_min":0,"x_max":0,"o":"m 233 308 b 363 482 233 411 274 482 b 493 308 450 482 493 411 b 363 135 493 206 450 135 b 233 308 274 135 233 206 z m 696 308 b 363 633 696 499 560 633 b 31 308 165 633 31 499 b 363 -17 31 117 165 -17 b 696 308 560 -17 696 117 z m 363 682 b 551 875 482 682 551 753 l 436 875 b 363 804 436 826 407 804 b 289 875 318 804 289 826 l 174 875 b 363 682 174 753 243 682 z "},"ő":{"ha":726,"x_min":0,"x_max":0,"o":"m 307 682 l 426 875 l 236 875 l 178 682 z m 535 682 l 653 875 l 464 875 l 404 682 z m 233 308 b 363 482 233 411 274 482 b 493 308 450 482 493 411 b 363 135 493 206 450 135 b 233 308 274 135 233 206 z m 696 308 b 363 633 696 499 560 633 b 31 308 165 633 31 499 b 363 -17 31 117 165 -17 b 696 308 560 -17 696 117 z "},"ō":{"ha":726,"x_min":0,"x_max":0,"o":"m 175 690 l 551 690 l 551 826 l 175 826 z m 233 308 b 363 482 233 411 274 482 b 493 308 450 482 493 411 b 363 135 493 206 450 135 b 233 308 274 135 233 206 z m 696 308 b 363 633 696 499 560 633 b 31 308 165 633 31 499 b 363 -17 31 117 165 -17 b 696 308 560 -17 696 117 z "},"ǿ":{"ha":726,"x_min":0,"x_max":0,"o":"m 696 308 b 611 533 696 399 664 476 l 672 607 l 600 664 l 539 590 b 363 633 489 618 429 633 b 31 308 165 633 31 499 b 114 82 31 217 61 139 l 54 10 l 126 -47 l 188 25 b 363 -17 236 -1 296 -17 b 696 308 560 -17 696 117 z m 433 682 l 568 875 l 364 875 l 289 682 z m 219 308 b 363 482 219 411 268 482 b 433 464 390 482 414 475 l 233 224 b 219 308 224 249 219 276 z m 507 308 b 363 135 507 206 457 135 b 292 151 335 135 311 140 l 493 392 b 507 308 501 368 507 339 z "},"ŕ":{"ha":531,"x_min":0,"x_max":0,"o":"m 363 682 l 497 875 l 293 875 l 218 682 z m 522 608 b 436 633 506 622 474 633 b 265 504 353 633 289 574 l 265 617 l 65 617 l 65 0 l 265 0 l 265 292 b 404 446 265 399 321 446 b 510 421 447 446 478 439 z "},"ř":{"ha":531,"x_min":0,"x_max":0,"o":"m 390 682 l 508 875 l 379 875 l 293 793 l 207 875 l 78 875 l 196 682 z m 522 608 b 436 633 506 622 474 633 b 265 504 353 633 289 574 l 265 617 l 65 617 l 65 0 l 265 0 l 265 292 b 404 446 265 399 321 446 b 510 421 447 446 478 439 z "},"ŗ":{"ha":531,"x_min":0,"x_max":0,"o":"m 76 -181 l 147 -181 b 76 -226 146 -217 125 -226 l 76 -296 b 257 -149 197 -296 257 -250 l 257 -53 l 76 -53 z m 522 608 b 436 633 506 622 474 633 b 265 504 353 633 289 574 l 265 617 l 65 617 l 65 0 l 265 0 l 265 292 b 404 446 265 399 321 446 b 510 421 447 446 478 439 z "},"ś":{"ha":632,"x_min":0,"x_max":0,"o":"m 388 682 l 522 875 l 318 875 l 243 682 z m 21 201 b 325 -17 32 51 158 -17 b 603 185 493 -17 603 56 b 390 383 603 303 525 363 l 271 404 b 221 449 240 408 221 424 b 301 503 221 482 251 503 b 431 418 378 503 421 472 l 596 424 b 304 633 583 556 479 633 b 35 429 139 633 35 549 b 253 236 35 307 111 258 l 347 221 b 417 165 397 213 417 196 b 326 113 417 132 381 113 b 196 206 251 113 204 146 z "},"ş":{"ha":632,"x_min":0,"x_max":0,"o":"m 481 -142 b 321 -53 481 -65 403 -36 l 350 -15 b 603 185 504 -8 603 61 b 390 383 603 303 525 363 l 271 404 b 221 449 240 408 221 424 b 301 503 221 482 251 503 b 431 418 378 503 421 472 l 596 424 b 304 633 583 556 479 633 b 35 429 139 633 35 549 b 253 236 35 307 111 258 l 347 221 b 417 165 397 213 417 196 b 326 113 417 132 381 113 b 196 206 251 113 204 146 l 21 201 b 285 -15 31 64 138 -4 l 219 -108 l 260 -124 b 360 -146 299 -107 360 -104 b 301 -178 360 -169 338 -178 b 183 -144 254 -178 214 -162 l 160 -196 b 317 -243 190 -221 249 -243 b 481 -142 400 -243 481 -217 z "},"ŝ":{"ha":632,"x_min":0,"x_max":0,"o":"m 222 875 l 104 682 l 233 682 l 319 765 l 406 682 l 535 682 l 417 875 z m 21 201 b 325 -17 32 51 158 -17 b 603 185 493 -17 603 56 b 390 383 603 303 525 363 l 271 404 b 221 449 240 408 221 424 b 301 503 221 482 251 503 b 431 418 378 503 421 472 l 596 424 b 304 633 583 556 479 633 b 35 429 139 633 35 549 b 253 236 35 307 111 258 l 347 221 b 417 165 397 213 417 196 b 326 113 417 132 381 113 b 196 206 251 113 204 146 z "},"ș":{"ha":632,"x_min":0,"x_max":0,"o":"m 231 -181 l 301 -181 b 231 -226 300 -217 279 -226 l 231 -296 b 411 -149 351 -296 411 -250 l 411 -53 l 231 -53 z m 21 201 b 325 -17 32 51 158 -17 b 603 185 493 -17 603 56 b 390 383 603 303 525 363 l 271 404 b 221 449 240 408 221 424 b 301 503 221 482 251 503 b 431 418 378 503 421 472 l 596 424 b 304 633 583 556 479 633 b 35 429 139 633 35 549 b 253 236 35 307 111 258 l 347 221 b 417 165 397 213 417 196 b 326 113 417 132 381 113 b 196 206 251 113 204 146 z "},"ŧ":{"ha":504,"x_min":0,"x_max":0,"o":"m 19 264 l 106 264 l 106 165 b 296 -17 106 26 196 -17 b 475 38 376 -17 429 3 l 475 169 b 375 144 438 153 406 144 b 303 219 328 144 303 167 l 303 264 l 464 264 l 464 389 l 303 389 l 303 476 l 467 476 l 467 617 l 303 617 l 303 788 l 179 788 l 158 706 b 64 606 143 649 125 617 l 19 599 l 19 476 l 106 476 l 106 389 l 19 389 z "},"ť":{"ha":482,"x_min":0,"x_max":0,"o":"m 460 674 l 549 875 l 353 875 l 333 674 z m 88 165 b 278 -17 88 26 178 -17 b 457 38 358 -17 411 3 l 457 169 b 357 144 419 153 388 144 b 285 219 310 144 285 167 l 285 476 l 449 476 l 449 617 l 285 617 l 285 788 l 161 788 l 140 706 b 46 606 125 649 107 617 l 1 599 l 1 476 l 88 476 z "},"ŭ":{"ha":739,"x_min":0,"x_max":0,"o":"m 474 303 b 361 142 474 204 436 142 b 258 278 288 142 258 190 l 258 617 l 58 617 l 58 229 b 278 -17 58 97 111 -17 b 474 96 371 -17 440 26 l 474 0 l 675 0 l 675 617 l 474 617 z m 367 682 b 556 875 486 682 556 753 l 440 875 b 367 804 440 826 411 804 b 293 875 322 804 293 826 l 178 875 b 367 682 178 753 247 682 z "},"ű":{"ha":739,"x_min":0,"x_max":0,"o":"m 474 303 b 361 142 474 204 436 142 b 258 278 288 142 258 190 l 258 617 l 58 617 l 58 229 b 278 -17 58 97 111 -17 b 474 96 371 -17 440 26 l 474 0 l 675 0 l 675 617 l 474 617 z m 311 682 l 431 875 l 240 875 l 182 682 z m 539 682 l 657 875 l 468 875 l 408 682 z "},"ū":{"ha":739,"x_min":0,"x_max":0,"o":"m 474 303 b 361 142 474 204 436 142 b 258 278 288 142 258 190 l 258 617 l 58 617 l 58 229 b 278 -17 58 97 111 -17 b 474 96 371 -17 440 26 l 474 0 l 675 0 l 675 617 l 474 617 z m 179 690 l 556 690 l 556 826 l 179 826 z "},"ų":{"ha":739,"x_min":0,"x_max":0,"o":"m 474 303 b 361 142 474 204 436 142 b 258 278 288 142 258 190 l 258 617 l 58 617 l 58 229 b 278 -17 58 97 111 -17 b 474 96 371 -17 440 26 l 474 0 l 525 0 b 439 -144 472 -42 439 -89 b 565 -243 439 -204 486 -243 b 675 -210 621 -243 651 -225 l 675 -118 b 611 -136 654 -128 635 -136 b 571 -99 586 -136 571 -122 b 675 0 571 -68 594 -46 l 675 617 l 474 617 z "},"ů":{"ha":739,"x_min":0,"x_max":0,"o":"m 317 800 b 367 850 317 829 333 850 b 417 800 400 850 417 829 b 367 750 417 771 400 750 b 317 800 333 750 317 771 z m 233 800 b 367 672 233 726 286 672 b 500 800 447 672 500 726 b 367 928 500 872 447 928 b 233 800 286 928 233 872 z m 474 303 b 361 142 474 204 436 142 b 258 278 288 142 258 190 l 258 617 l 58 617 l 58 229 b 278 -17 58 97 111 -17 b 474 96 371 -17 440 26 l 474 0 l 675 0 l 675 617 l 474 617 z "},"ũ":{"ha":739,"x_min":0,"x_max":0,"o":"m 474 303 b 361 142 474 204 436 142 b 258 278 288 142 258 190 l 258 617 l 58 617 l 58 229 b 278 -17 58 97 111 -17 b 474 96 371 -17 440 26 l 474 0 l 675 0 l 675 617 l 474 617 z m 257 683 b 303 738 260 722 278 738 b 456 679 351 738 389 679 b 579 872 536 679 579 758 l 482 872 b 436 819 479 833 461 819 b 283 876 388 819 349 876 b 160 683 201 876 160 797 z "},"ẃ":{"ha":988,"x_min":0,"x_max":0,"o":"m 564 682 l 699 875 l 494 875 l 419 682 z m 583 617 l 422 617 l 324 242 l 318 242 l 200 617 l 0 617 l 196 0 l 392 0 l 490 372 l 496 372 l 596 0 l 792 0 l 988 617 l 806 617 l 688 242 l 682 242 z "},"ŵ":{"ha":988,"x_min":0,"x_max":0,"o":"m 396 875 l 278 682 l 407 682 l 493 765 l 579 682 l 708 682 l 590 875 z m 583 617 l 422 617 l 324 242 l 318 242 l 200 617 l 0 617 l 196 0 l 392 0 l 490 372 l 496 372 l 596 0 l 792 0 l 988 617 l 806 617 l 688 242 l 682 242 z "},"ẁ":{"ha":988,"x_min":0,"x_max":0,"o":"m 583 617 l 422 617 l 324 242 l 318 242 l 200 617 l 0 617 l 196 0 l 392 0 l 490 372 l 496 372 l 596 0 l 792 0 l 988 617 l 806 617 l 688 242 l 682 242 z m 569 682 l 494 875 l 290 875 l 425 682 z "},"ẅ":{"ha":988,"x_min":0,"x_max":0,"o":"m 282 690 l 461 690 l 461 872 l 282 872 z m 528 690 l 707 690 l 707 872 l 528 872 z m 583 617 l 422 617 l 324 242 l 318 242 l 200 617 l 0 617 l 196 0 l 392 0 l 490 372 l 496 372 l 596 0 l 792 0 l 988 617 l 806 617 l 688 242 l 682 242 z "},"ŷ":{"ha":714,"x_min":0,"x_max":0,"o":"m 360 -225 l 714 617 l 517 617 l 365 232 l 360 232 l 211 617 l 0 617 l 253 -6 l 163 -225 z m 258 875 l 140 682 l 269 682 l 356 765 l 442 682 l 571 682 l 453 875 z "},"ỳ":{"ha":714,"x_min":0,"x_max":0,"o":"m 360 -225 l 714 617 l 517 617 l 365 232 l 360 232 l 211 617 l 0 617 l 253 -6 l 163 -225 z m 432 682 l 357 875 l 153 875 l 288 682 z "},"ź":{"ha":621,"x_min":0,"x_max":0,"o":"m 382 682 l 517 875 l 313 875 l 238 682 z m 331 471 l 38 138 l 38 0 l 583 0 l 583 146 l 279 146 l 576 481 l 576 617 l 44 617 l 44 471 z "},"ż":{"ha":621,"x_min":0,"x_max":0,"o":"m 331 471 l 38 138 l 38 0 l 583 0 l 583 146 l 279 146 l 576 481 l 576 617 l 44 617 l 44 471 z m 210 692 l 414 692 l 414 875 l 210 875 z "},"⅓":{"ha":1108,"x_min":0,"x_max":0,"o":"m 25 688 l 129 688 l 129 318 l 285 318 l 285 876 l 163 876 b 25 792 142 818 101 792 z m 907 164 b 847 117 907 132 879 117 b 769 188 801 117 771 138 l 615 192 b 847 -11 615 68 701 -11 b 1067 151 978 -11 1067 47 b 954 282 1067 221 1028 269 b 1053 400 1006 288 1053 333 b 844 568 1053 500 976 568 b 621 360 704 568 621 474 l 771 353 b 840 440 771 403 794 440 b 897 383 879 440 897 419 b 839 328 897 347 869 328 b 797 329 826 328 807 328 l 797 219 b 838 221 813 221 828 221 b 907 164 876 221 907 203 z m 826 875 l 688 875 l 153 0 l 293 0 z "},"⅔":{"ha":1264,"x_min":0,"x_max":0,"o":"m 1063 164 b 1003 117 1063 132 1035 117 b 925 188 957 117 926 138 l 771 192 b 1003 -11 771 68 857 -11 b 1222 151 1133 -11 1222 47 b 1110 282 1222 221 1183 269 b 1208 400 1161 288 1208 333 b 1000 568 1208 500 1132 568 b 776 360 860 568 776 474 l 926 353 b 996 440 926 403 950 440 b 1053 383 1035 440 1053 419 b 994 328 1053 347 1025 328 b 953 329 982 328 963 328 l 953 219 b 993 221 968 221 983 221 b 1063 164 1032 221 1063 203 z m 261 449 l 326 497 b 463 706 417 567 463 610 b 249 886 463 808 383 886 b 31 688 119 886 31 807 b 38 636 31 669 35 653 l 190 631 b 185 676 188 642 185 654 b 243 753 185 718 200 753 b 299 696 285 753 299 728 b 189 551 299 644 274 618 l 36 432 l 36 318 l 468 318 l 468 449 z m 982 875 l 843 875 l 310 0 l 449 0 z "},"⅛":{"ha":1128,"x_min":0,"x_max":0,"o":"m 25 688 l 129 688 l 129 318 l 285 318 l 285 876 l 163 876 b 25 792 142 818 101 792 z m 857 454 b 919 396 896 454 919 432 b 857 342 919 360 896 342 b 794 396 818 342 794 360 b 857 454 794 432 818 454 z m 857 233 b 931 169 903 233 931 211 b 857 106 931 129 903 106 b 782 169 810 106 782 129 b 857 233 782 211 810 233 z m 857 -11 b 1086 151 1003 -11 1086 51 b 986 288 1086 221 1046 272 b 1071 413 1040 313 1071 349 b 857 568 1071 508 982 568 b 642 413 729 568 642 508 b 726 288 642 349 671 313 b 625 151 665 272 625 221 b 857 -11 625 51 708 -11 z m 826 875 l 688 875 l 153 0 l 293 0 z "},"⅜":{"ha":1261,"x_min":0,"x_max":0,"o":"m 990 454 b 1054 396 1029 454 1054 432 b 990 342 1054 360 1029 342 b 929 396 951 342 929 360 b 990 454 929 432 951 454 z m 990 233 b 1065 169 1036 233 1065 211 b 990 106 1065 129 1036 106 b 915 169 944 106 915 129 b 990 233 915 211 944 233 z m 990 -11 b 1219 151 1138 -11 1219 51 b 1119 288 1219 221 1181 272 b 1204 413 1174 313 1204 349 b 990 568 1204 508 1117 568 b 775 413 863 568 775 508 b 861 288 775 349 806 313 b 760 151 799 272 760 221 b 990 -11 760 51 842 -11 z m 322 483 b 263 435 322 450 293 435 b 183 506 215 435 185 456 l 31 511 b 263 307 31 386 117 307 b 482 471 393 307 482 365 b 369 600 482 539 443 588 b 468 718 421 607 468 651 b 260 886 468 818 392 886 b 36 678 119 886 36 793 l 186 672 b 254 758 186 721 210 758 b 313 703 293 758 313 738 b 253 647 313 665 285 647 b 213 649 242 647 221 647 l 213 538 b 251 539 228 540 243 539 b 322 483 292 539 322 521 z m 960 875 l 821 875 l 288 0 l 426 0 z "},"⅝":{"ha":1257,"x_min":0,"x_max":0,"o":"m 986 454 b 1050 396 1025 454 1050 432 b 986 342 1050 360 1025 342 b 925 396 947 342 925 360 b 986 454 925 432 947 454 z m 986 233 b 1061 169 1032 233 1061 211 b 986 106 1061 129 1032 106 b 911 169 940 106 911 129 b 986 233 911 211 940 233 z m 986 -11 b 1215 151 1132 -11 1215 51 b 1115 288 1215 221 1176 272 b 1200 413 1169 313 1200 349 b 986 568 1200 508 1111 568 b 771 413 858 568 771 508 b 857 288 771 349 800 313 b 754 151 794 272 754 221 b 986 -11 754 51 838 -11 z m 432 875 l 81 875 b 44 560 79 783 57 636 l 194 549 b 258 581 208 569 226 581 b 331 506 306 581 331 546 b 258 435 331 460 300 435 b 188 503 215 435 189 460 l 38 514 b 258 308 33 385 110 308 b 474 506 382 308 474 381 b 281 697 474 614 410 697 b 185 674 232 697 204 686 b 194 750 189 694 194 726 l 432 750 z m 956 875 l 817 875 l 283 0 l 422 0 z "},"⅞":{"ha":1146,"x_min":0,"x_max":0,"o":"m 874 454 b 938 396 913 454 938 432 b 874 342 938 360 913 342 b 813 396 836 342 813 360 b 874 454 813 432 836 454 z m 874 233 b 949 169 919 233 949 211 b 874 106 949 129 919 106 b 800 169 828 106 800 129 b 874 233 800 211 828 233 z m 874 -11 b 1104 151 1021 -11 1104 51 b 1003 288 1104 221 1064 272 b 1088 413 1058 313 1088 349 b 874 568 1088 508 1000 568 b 658 413 747 568 658 508 b 744 288 658 349 689 313 b 643 151 682 272 643 221 b 874 -11 643 51 726 -11 z m 275 735 b 124 318 163 611 126 499 l 296 318 b 444 750 296 490 297 607 l 444 875 l 17 875 l 17 735 z m 843 875 l 704 875 l 171 0 l 310 0 z "}}}
